<?xml version="1.0" encoding="utf-8"?>
<!-- Generator: Adobe Illustrator 19.0.0, SVG Export Plug-In . SVG Version: 6.00 Build 0)  -->
<svg version="1.1"
	 id="svg8" xmlns:inkscape="http://www.inkscape.org/namespaces/inkscape" xmlns:svg="http://www.w3.org/2000/svg" xmlns:dc="http://purl.org/dc/elements/1.1/" xmlns:cc="http://creativecommons.org/ns#" xmlns:rdf="http://www.w3.org/1999/02/22-rdf-syntax-ns#" xmlns:sodipodi="http://sodipodi.sourceforge.net/DTD/sodipodi-0.dtd" inkscape:version="0.92.4 (5da689c313, 2019-01-14)" sodipodi:docname="MySignature.svg"
	 xmlns="http://www.w3.org/2000/svg" xmlns:xlink="http://www.w3.org/1999/xlink" x="0px" y="0px" viewBox="-291 165.4 376.9 230.6"
	 style="enable-background:new -291 165.4 376.9 230.6;" xml:space="preserve">
<sodipodi:namedview  borderopacity="1.0" pagecolor="#ffffff" id="base" inkscape:cx="478.98712" bordercolor="#666666" inkscape:cy="406.45061" showgrid="false" inkscape:zoom="0.57769471" inkscape:document-units="mm" inkscape:current-layer="layer1" inkscape:window-width="1920" inkscape:window-x="-8" inkscape:window-height="1028" inkscape:pageopacity="0.0" inkscape:window-y="-8" inkscape:window-maximized="1" inkscape:pageshadow="2">
	</sodipodi:namedview>
<g id="layer1" transform="translate(0,-87)" inkscape:label="Layer 1" inkscape:groupmode="layer">
	<g id="path897">
		<path inkscape:connector-curvature="0" d="M-279.5,449.9c3.8-6.3,8-12.6,11.8-19c9.9-16.8,19.4-33.4,29.3-50.2
			c11.4-19.1,21.9-38.4,32.2-57.8c5.5-10.4,10.8-20.8,15.4-31.4c0.3-0.7,1.3-2.9,1.9-3.9c0.1-0.2,0.1-0.6,0.4-0.6
			c0.3-0.1,0.6,0.3,0.7,0.6c0.1,0.5-0.1,1.1-0.3,1.7c-0.1,0.9-0.4,1.8-0.6,2.6c-3.5,14.1-6.6,28.3-9.5,42.6
			c-4.1,21.3-7.3,42.7-9.6,64.2c-1.2,11.8-2.1,23.6-2.6,35.5c0,0.5,0,0.9-0.1,1.4c0,0.1,0.1,0.2,0,0.2c-1-1.4-0.6-1-0.8-2.9
			c-0.3-2.7-0.6-3.4-1.2-6.1c-1.5-5.4-4-10.5-7.7-15.2c-2.8-3.4-3.8-3.8-7.1-6.8c-1.6-0.9-2.8-2-4.4-3c-6-3.7-12.9-6.8-20.2-8.4
			c-1.7-0.4-3.3-0.5-5-0.9c-1.6-0.1-3-0.3-4.6-0.3c-4.4-0.2-9.9,0.5-13.4,2.7c-0.6,0.4-1,0.9-1.7,1.4c-0.2,0.5-0.5,0.9-0.7,1.6
			c-0.3,2.8,3.3,4.9,6.3,5.9c1.2,0.4,2.4,0.7,3.6,0.9c8.9,1.5,18.1,0.7,26.9-0.9c2.1-0.4,4.1-1,6.2-1.4c10.3-2.6,20-6.7,29.7-10.2
			c1.1-0.3,4.2-1.8,5.7-1.2c1.6,0.5,0.6,2.5,0.4,3.5c-1.6,4-3,7.9-3.7,12.1c0,0.6-0.6,3.8,0.9,3.9c0.6,0,1.9-0.6,2.2-0.9
			c3.3-2.1,6.1-4.7,9.3-7.1c2.6-2,2.5-1.9,5.3-3.7c1.6-0.8,6-4.3,8.2-2.8c0.3,0.3,0.5,0.6,0.7,0.9c0.1,0.4,0.4,0.8,0.5,1.2
			c0.3,1.1,0.3,1.9,0.5,3.1c0.1,1.5,0.4,2.9,0.5,4.4c0.1,0.4,0.2,1.2,0.8,1.5c1.2,0.5,4.3-2,4.9-2.4c3.1-2,5.8-5,9.6-6.3
			c0.4-0.1,1-0.3,1.5-0.3c0.4,0,0.8,0,1.2,0c1.8,0.5,3.6,3.8,4.6,4.9c0.9,1,1.9,2.7,3.6,2.9c0.9,0.1,1.4-0.2,2.3-0.4
			c4-2.1,7.1-5,10.5-7.5c1.1-0.8,2.3-1.8,3.4-2.6c0.3-0.2,0.7-0.5,0.7-0.5c0.2,0.2,0.3,0.3,0.4,0.5c-0.7,1.8-1,3.7-1.1,5.6
			c-0.1,1.8,0.1,3.9,2.4,4.8c0.4,0.2,0.9,0.2,1.4,0.3c0.6-0.1,1,0,1.7-0.1c4.8-0.7,9.2-5.2,12.2-7.9c6.9-6.6,12.1-14.4,16.2-22.3
			c0.8-1.6,1.6-3.3,2.4-4.8c1.9-3.9,3.4-7.7,4.5-11.7c0.2-1.2,0.8-3.7,1-4.9c0-0.5-0.1-0.8,0-1.3c-0.2-0.1-0.2-0.3-0.5-0.3
			c-0.2,0.1-0.3,0.3-0.4,0.5c-0.3,0.4-0.7,0.9-1,1.4c-2,3.3-3,7-4.3,10.4c-3.2,9.4-4.8,19.2-6.5,28.7c-0.5,2.4-0.9,4.8-1.3,7.3
			c0,0.3-0.1,0.6-0.2,0.9c0,0.2-0.2,0.3-0.3,0.2c-0.3-0.3-0.4-0.5-0.5-0.7c0.1-1.9,0-0.8,0-3.1c0-0.3,0.6-0.3,0.6-0.1l0,0
			c0,2.2,0.1,1.2,0,3.1c-0.2,0.2-0.3,0.2-0.4,0.4c0,0,0.1,0.1,0.1,0c0.1-0.3,0.1-0.6,0.2-0.9c0.5-2.4,0.9-4.8,1.3-7.3
			c1.9-9.6,3.5-19.4,6.5-28.8c1.2-3.6,2.3-7.3,4.3-10.6c0.3-0.5,1.2-2.1,2.5-1.9c0.3,0,0.4,0.4,0.6,0.6c0.1,0.5,0.1,0.9,0,1.4
			c-0.2,1.4-0.7,3.8-1,5.1c-1.1,4.1-2.7,7.9-4.5,11.8c-0.8,1.6-1.6,3.3-2.4,4.8c-4.3,8-9.5,15.8-16.3,22.6
			c-3.1,2.8-7.6,7.3-12.6,7.9c-0.6,0.1-1.2,0-1.8,0.1c-0.5-0.1-1-0.1-1.6-0.4c-2.4-1-2.8-3.3-2.7-5.2c0.2-1.9,0.5-3.8,1.1-5.6
			c0.2,0,0.3-0.1,0.5-0.1c0.1,0-0.1,0.1-0.2,0.1c-0.2,0.2-0.3,0.1-0.4,0.3c-1.1,0.8-2.3,1.8-3.4,2.6c-3.4,2.6-6.7,5.5-10.6,7.7
			c-1.1,0.4-1.5,0.6-2.7,0.5c-2-0.2-2.9-2-4-3.1c-3.1-4.4,1.4,2-1.8-2.4c-0.5-0.7-1.1-2-2.3-2.3c-0.3-0.1-0.6,0-1,0
			c-0.4,0.1-0.9,0.2-1.4,0.3c-3.6,1.3-6.4,4.3-9.5,6.3c-1,0.8-4,3.4-5.7,2.3c-0.6-0.3-0.8-1.2-0.9-1.7c-0.4-2.7-0.4-5.7-1.5-8.5
			c-0.1-0.2-0.3-0.5-0.5-0.7c-1.7-1.5-6.5,2.1-7.6,2.7c-2.7,1.8-2.6,1.7-5.2,3.7c-3.1,2.4-5.9,5.1-9.4,7.2c-0.8,0.4-1.7,1.1-2.8,0.9
			c-1.9-0.2-1.3-3.4-1.2-4.3c0.7-4.1,2.2-8,3.7-12.1c0.1-0.3,0.9-2.5,0.1-2.8c-1.2-0.5-4.3,1-5.4,1.2c-9.8,3.7-19.5,7.7-29.8,10.2
			c-2.1,0.5-4.1,1.1-6.3,1.5c-8.8,1.7-18.1,2.5-27.2,0.9c-1.2-0.4-2.6-0.6-3.9-1c-3.1-1.1-7-3.5-6.5-6.5c0-0.6,0.5-1.1,0.8-1.7
			c0.5-0.5,1-1.2,1.8-1.5c3.6-2.3,9.4-2.9,13.8-2.8c1.6,0.1,3.1,0.2,4.6,0.3c1.7,0.3,3.3,0.5,5.1,0.9c7.3,1.8,14.4,4.7,20.5,8.5
			c1.6,0.9,2.9,2,4.4,3c3.5,3,4.4,3.5,7.2,6.9c3.9,4.6,6.3,9.9,7.8,15.2c0.6,2.8,0.8,3.5,1.3,6.1c0.2,1.9,0.4,1.6-0.3,3
			c0,0.1,0-0.1,0-0.2c0-0.5,0-0.9,0.1-1.4c0.4-11.9,1.4-23.7,2.6-35.5c2.4-21.6,5.4-43.1,9.6-64.2c2.9-14.2,6-28.4,9.5-42.6
			c0.1-0.9,0.4-1.8,0.6-2.6c0.1-0.4,0.1-1,0.3-1.5c0.1-0.2,0.3-0.5,0.4-0.4c0.1,0.2-0.3,0.4-0.3,0.5c-0.4,0.9-1.5,3.2-1.9,3.9
			c-4.7,10.6-10,21.1-15.5,31.4c-10.3,19.5-20.9,38.8-32.3,57.8c-9.9,16.8-19.5,33.4-29.3,50.2c-3.8,6.4-7.9,12.6-11.8,19
			C-279.1,450.4-279.7,450.2-279.5,449.9L-279.5,449.9z"/>
		<path d="M-279.2,452.9l-0.7-1.9c-0.6-0.5-0.7-0.9-0.4-1.4c1.5-2.4,3-4.9,4.6-7.3c2.4-3.8,4.9-7.7,7.2-11.6
			c4.6-7.8,9.1-15.6,13.6-23.3c-4.4,0.1-8.6-0.2-12.6-0.8l-0.2,0c-0.6-0.2-1.2-0.3-1.9-0.5c-0.6-0.1-1.3-0.3-2-0.5
			c-3.7-1.3-7.7-4-7.2-7.4c0-0.5,0.3-0.9,0.5-1.3c0.1-0.2,0.2-0.3,0.3-0.5l0.1-0.2l0.1-0.1c0.1-0.1,0.3-0.3,0.4-0.4
			c0.4-0.4,0.9-0.9,1.5-1.2c0.2-0.1,0.3-0.2,0.5-0.3c4.7-2.9,11.9-2.9,14-2.8c1.5,0.1,2.8,0.2,4.2,0.3l0.6,0.1
			c0.8,0.2,1.6,0.3,2.4,0.4c0.8,0.1,1.7,0.3,2.6,0.5c1.5,0.3,3,0.7,4.4,1.2c2.6-4.4,5.2-8.9,7.8-13.3c9.8-16.5,20.1-34.9,32.2-57.8
			c4.9-9.2,10.6-20.2,15.4-31.4l0.2-0.5c0.5-1,1.2-2.6,1.7-3.5c0.1-0.3,0.3-0.9,1-1.1c0.4-0.1,0.7,0,1.1,0.1
			c0.4,0.2,0.8,0.6,0.9,1.1c0.1,0.6,0,1.1-0.2,1.6c0,0.1-0.1,0.3-0.1,0.4c-0.1,1-0.4,2-0.6,2.7c-3.4,13.8-6.6,28.1-9.5,42.5
			c-3.5,18.2-6.5,37.4-8.8,57c0.3-0.1,0.7-0.3,1-0.4l0.1,0c0.2-0.1,0.6-0.2,1.1-0.4c1.7-0.6,3.8-1.4,5.3-0.8
			c2.1,0.7,1.4,2.8,1.1,3.9c-0.1,0.2-0.1,0.4-0.2,0.5l0,0.1c-1.5,3.7-3,7.8-3.6,11.9c0,0,0,0.1,0,0.3c-0.2,1.8,0,2.4,0.1,2.7
			c0.4-0.1,1.2-0.5,1.4-0.6c2.2-1.4,4.1-2.9,6.1-4.6c1-0.8,2.1-1.7,3.2-2.5l0.1-0.1c2.5-1.9,2.5-1.9,5-3.6l0.3-0.2
			c0.3-0.2,0.7-0.4,1.3-0.8c2.3-1.4,5.7-3.6,8.1-2l0.1,0.1c0.4,0.3,0.6,0.8,0.8,1.1l0.1,0.2c0,0.1,0.1,0.3,0.2,0.5
			c0.1,0.2,0.2,0.5,0.3,0.8c0.2,0.9,0.3,1.6,0.4,2.5l0.1,0.7c0.1,0.8,0.2,1.5,0.3,2.2c0.1,0.7,0.2,1.5,0.3,2.2l0,0.1
			c0,0.2,0.1,0.6,0.2,0.7c0.3,0,1.2-0.4,3.3-1.9c0.3-0.2,0.5-0.3,0.6-0.4c0.9-0.6,1.9-1.4,2.8-2.1c2.1-1.6,4.2-3.3,6.9-4.3
			c0.5-0.2,1.2-0.3,1.8-0.4l0.2,0c0.1,0,0.2,0,0.3,0c0.3,0,0.7,0,1.1,0.1c1.7,0.4,3,2.3,4.2,3.9c0.4,0.5,0.7,1,1,1.3
			c0.2,0.2,0.3,0.4,0.5,0.6c0.6,0.8,1.5,1.8,2.4,1.9c0.4,0.1,0.7,0,1.2-0.2c0.2-0.1,0.4-0.1,0.6-0.2c2.7-1.4,5-3.3,7.3-5.1
			c1-0.8,2-1.6,3-2.3c0.6-0.4,1.1-0.8,1.7-1.3c0.6-0.4,1.2-0.9,1.7-1.3c0.4-0.3,0.8-0.5,0.8-0.5l0.7-0.4l0.6,0.5
			c0.1,0.1,0.1,0.1,0.2,0.2l0.6,0l0,0.8c0,0.2-0.1,0.4-0.3,0.5c-0.6,1.7-0.9,3.4-1,5.1c-0.1,2.3,0.5,3.5,1.8,4
			c0.2,0.1,0.4,0.1,0.7,0.2c0.1,0,0.2,0,0.4,0.1c0.2,0,0.4,0,0.6,0c0.3,0,0.5,0,0.8-0.1c4-0.6,7.8-4.1,10.6-6.6
			c0.4-0.3,0.7-0.7,1.1-1c4.8-4.7,9.1-10.1,13-16.6c1.1-5.5,2.4-11,4.1-16.3c0.2-0.7,0.4-1.3,0.7-2c1-3,2-6,3.7-8.8
			c0.4-0.8,1.5-2.6,3.5-2.3c0.7,0.1,1,0.6,1.2,0.8c0,0,0,0.1,0.1,0.1l0.2,0.2l0,0.2c0.1,0.6,0.1,1,0.1,1.6c-0.2,1.5-0.7,4-1,5.2
			c-1.1,4.3-2.9,8.4-4.5,11.9c-0.8,1.6-1.6,3.3-2.4,4.8c-1.1,2-2.2,4-3.3,5.8c-0.6,2.8-1.1,5.6-1.6,8.3l-0.6,3.4
			c-0.5,2.4-0.9,4.8-1.3,7.2c0,0.3-0.1,0.6-0.2,0.8l0,0.1c-0.1,0.4-0.4,0.7-0.8,0.8c-0.4,0.1-0.9,0-1.2-0.2
			c-0.2-0.2-0.4-0.4-0.5-0.6l-0.3-0.2l0.1-0.2c0,0,0,0,0-0.1l0-0.1l0-0.1c0-1.2,0-1.2,0-1.6c0-0.2,0-0.6,0-1.5
			c0-0.3,0.2-0.6,0.5-0.8c0.2-0.1,0.4-0.2,0.7-0.2c0.2-1.2,0.4-2.5,0.6-3.7c0.3-1.7,0.6-3.3,1-5c0.1-0.3,0.1-0.6,0.2-0.9
			c-3,4.3-6.2,8.1-9.6,11.5l-0.8,0.7c-3.2,2.9-7.5,6.9-12.5,7.5c-0.4,0-0.7,0-1,0.1c-0.3,0-0.5,0-0.8,0l-0.2,0l-0.2,0
			c-0.1,0-0.2,0-0.3-0.1c-0.4-0.1-0.9-0.1-1.5-0.4c-2.2-0.9-3.3-2.9-3.2-6c0.1-1,0.2-1.9,0.4-2.9c-0.4,0.3-0.8,0.6-1.1,0.9
			c-0.8,0.6-1.7,1.3-2.5,1.9c-2.6,2-5.2,4.1-8.2,5.8l-0.2,0.1l-0.4,0.1c-0.9,0.3-1.5,0.5-2.8,0.4c-2.1-0.2-3.2-1.6-4.1-2.7
			c-0.2-0.3-0.4-0.5-0.6-0.7l-0.1-0.1l-0.5-0.7c0,0,0,0,0,0c0,0-0.1-0.1-0.1-0.1l0,0c0,0,0,0,0,0c-0.3-0.3-0.6-0.8-1.1-1.5
			c-0.1-0.1-0.2-0.3-0.3-0.4c-0.3-0.5-0.9-1.3-1.4-1.5c-0.1,0-0.2,0-0.3,0c-0.1,0-0.2,0-0.3,0c-0.3,0.1-0.8,0.2-1.2,0.3
			c-2.1,0.8-4,2.3-5.9,3.7c-1.1,0.8-2.2,1.7-3.3,2.4c-0.1,0-0.2,0.1-0.3,0.3c-1.5,1.2-4.4,3.4-6.6,2.1c-0.8-0.4-1-1.3-1.2-1.8
			c0-0.1-0.1-0.2-0.1-0.3l0-0.1c-0.1-0.8-0.2-1.6-0.3-2.3c-0.2-2-0.4-4-1.1-5.9c-0.2-0.3-0.2-0.4-0.3-0.4c-0.4-0.3-1.6-0.2-5.4,2.2
			c-0.4,0.2-0.7,0.4-0.9,0.6l-0.1,0.1c-2.4,1.6-2.4,1.6-4.8,3.5l-0.1,0.1c-1,0.8-2,1.6-3,2.4c-2,1.7-4.1,3.4-6.5,4.8l-0.1,0.1
			c-0.2,0.1-0.3,0.2-0.5,0.2c-0.8,0.4-1.8,0.9-3.1,0.7c-2.5-0.3-2.2-3.2-2.1-4.7c0-0.2,0-0.3,0-0.5c0.6-3.7,1.8-7.1,3.1-10.6
			l0.6-1.6c0.4-1.1,0.4-1.7,0.4-1.9c-0.7,0-2.6,0.7-3.2,0.9c-0.4,0.2-0.8,0.3-1.1,0.4c-0.9,0.3-1.7,0.7-2.6,1
			c-0.2,1.4-0.3,2.7-0.5,4.1c-1.4,13.7-2.2,25-2.6,35.4l0,1.2l0.1,0.3l-0.3,0.4l-0.3,0.3l-0.1,0c0,0,0,0,0,0.1l-0.2-0.1l-0.8,0
			l-0.2-0.2l-0.8,0l0-1.1c-0.2-0.4-0.2-0.7-0.2-1.1c0-0.3,0-0.6-0.1-1.2c-0.2-2-0.4-2.8-0.8-4.3c-0.1-0.5-0.2-1.1-0.4-1.8
			c-1.5-5.5-4.1-10.5-7.6-14.9c-0.2-0.3-0.4-0.5-0.6-0.8c-1.6-1.8-2.5-2.6-4.3-4.1c-0.5-0.4-1.1-0.9-1.7-1.5
			c-0.6-0.4-1.2-0.8-1.9-1.3c-0.5-0.3-0.9-0.7-1.4-1c-0.9,0.3-1.8,0.5-2.8,0.7c-0.9,0.2-1.7,0.4-2.6,0.6c-1.2,0.3-2.5,0.6-3.8,0.9
			c-4.1,0.8-8.1,1.4-11.8,1.6c-3.7,6.4-7.5,12.8-11.1,19.1l-3.4,5.8c-2.1,3.6-4.4,7.2-6.6,10.7c-1.7,2.7-3.5,5.5-5.2,8.3
			L-279.2,452.9z M-219.9,410.3c0.3,0.4,0.7,0.8,1,1.2c3.3,3.9,5.7,8.4,7.4,13.7c0.5-9.1,1.4-18.1,2.2-26.1c0.1-1.1,0.2-2.3,0.4-3.4
			c-6.4,2.5-13,4.9-19.8,6.9c0.7,0.5,1.3,1,2.1,1.4l0.1,0.1c0.9,0.7,1.6,1.3,2.2,1.8C-222.7,407.4-221.6,408.3-219.9,410.3z
			 M-275.6,396.6c0,0.1-0.1,0.2-0.1,0.2c-0.2,0.3-0.3,0.6-0.4,1c-0.2,2.2,2.9,4.1,5.7,5.1c1.1,0.3,2.3,0.6,3.4,0.9
			c4.2,0.7,8.8,0.9,13.7,0.6c1.7-3,3.5-6,5.3-9.1c-1.3-0.4-2.7-0.8-4-1.1c-1.1-0.2-2.2-0.4-3.3-0.6c-0.5-0.1-1.1-0.2-1.6-0.3
			c-1.4-0.1-2.9-0.3-4.5-0.3c-1.9,0-8.4,0-12.6,2.3c0,0,0,0,0,0c-0.3,0.2-0.5,0.4-0.8,0.6C-275.2,396.2-275.4,396.4-275.6,396.6z
			 M-245.5,396.2c-1.6,2.7-3.1,5.3-4.7,8c3-0.3,6.2-0.7,9.5-1.4c1.1-0.2,2.2-0.5,3.2-0.8c1-0.2,1.9-0.5,2.9-0.7
			c0.1,0,0.3-0.1,0.4-0.1C-237.6,399.3-241.5,397.6-245.5,396.2z M-244.5,394.6c4.4,1.6,8.7,3.6,12.8,6.1c6.7-1.9,13.2-4.3,19.5-6.7
			c1.2-0.5,2.4-0.9,3.7-1.4c2.4-21.1,5.4-40.1,8.9-57.8c2.5-12.5,5.3-24.9,8.2-37.1c-3.8,8.1-8.1,16.8-13.2,26.3
			c-11.4,21.6-21.9,40.5-32.3,57.8C-239.5,386.1-242,390.3-244.5,394.6z M-91.1,355c-1.3,2.2-2.2,4.7-3,7c-0.4,1-0.7,2.1-1.1,3
			c-0.8,2.5-1.6,5-2.2,7.5c0.4-0.7,0.7-1.5,1.1-2.2c2-4.2,3.5-8,4.4-11.6c0.1-0.3,0.2-0.7,0.3-1.2C-91.5,356.8-91.3,355.8-91.1,355z
			"/>
	</g>
	<g id="path899">
		<path inkscape:connector-curvature="0" d="M-114.5,380.8c6.6-2,13.5-3.2,20.4-4.5c7-1.3,13.8-2.2,20.7-3.3
			c0.4-0.1,0.5,0.4,0.1,0.5l0,0c-6.9,1-14,1.9-20.7,3.3c-6.9,1.3-13.7,2.3-20.3,4.4C-114.5,381.5-114.8,381-114.5,380.8
			L-114.5,380.8z"/>
		<path d="M-114.5,382.1c-0.1,0-0.1,0-0.2,0c-0.5-0.1-0.8-0.4-0.9-0.9c-0.1-0.4,0.1-0.9,0.6-1.1l0.2-0.1c6.5-2,13.3-3.2,20-4.4
			l0.5-0.1c4.8-0.9,9.5-1.6,14.2-2.3c2.2-0.3,4.4-0.7,6.6-1c0.7-0.1,1.4,0.2,1.5,0.8c0.2,0.6-0.3,1.1-1,1.3
			c-1.2,0.2-2.5,0.4-3.7,0.5c-5.6,0.8-11.5,1.6-17,2.7c-0.9,0.2-1.9,0.3-2.8,0.5c-5.7,1-11.6,2.1-17.2,3.8
			C-114,382-114.2,382.1-114.5,382.1z"/>
	</g>
	<g id="path905">
		<path inkscape:connector-curvature="0" d="M1.4,314c-4.8-1.9-10.2-1.5-15.3-1.2c-9.2,0.8-18.1,3-26.2,6.5c-1.7,0.7-3.4,1.6-5,2.5
			c-5.5,3.2-11.1,6.9-12.2,12.7c-0.6,3.5,0.2,4.9,1.4,8.3c0.8,1.6,1.7,3.3,2.6,4.8c3.5,5.6,8.1,10.7,12.7,15.8
			c0.7,0.7,8.7,9.3,9.5,10.2c5.5,6.5,12.6,13.2,14.9,21c0.3,1.1,0.4,2.2,0.6,3.4c-0.1,1.1-0.1,2.1-0.4,3.1c-0.8,3.1-3.4,5.5-6.5,7.1
			c-2.7,1.5-4.6,1.9-7.5,2.9c-5.7,1.5-11.8,2-17.8,1.3c-4-0.4-5.1-0.9-8.8-1.9c-5.2-1.7-10.3-4.3-13.3-8.2c-1.6-2.1-1.5-2.7-2.1-4.8
			c0-2.2,0.4-4.7,3.7-5c1.7-0.1,3.1,0.5,4.7,0.9c4.4,1.6,8.4,3.9,12.6,6c3.8,1.8,3.4,1.6,7.4,3.1c4.8,1.6,9.9,2.4,15.1,1.9
			c3.3-0.4,4.2-0.8,7.4-1.7c8.4-3.4,14.3-9.6,19.9-15.5c3.2-3.7,7.1-7.7,7.4-12.4c0-0.6-0.2-1.2-0.1-1.8c-0.4-1.5-1.3-3.6-3.3-3.9
			c-1.1-0.1-1.8,0.2-2.8,0.5c-3.8,1.9-6.6,5-8.5,8.2c-0.4,0.8-0.9,1.7-1.3,2.4c-1.9,4.4-2.1,9.2-0.4,13.7c0.4,0.8,0.7,1.6,1,2.4
			c1.7,2.9,4.2,6.3,8.3,6.9c0.7,0.1,1.5,0.1,2.2,0.1c0.7-0.1,1.6-0.2,2.3-0.4c5.2-1.3,9.8-5.5,13.5-8.5c2.4-1.9,4.7-3.8,7-5.7
			c1.1-0.9,2.4-1.9,3.6-2.7c0.2,0,0.4-0.1,0.6-0.1c0.8,0.5,0,2.2-0.2,2.7c-0.2,1.1-0.5,1.8-0.8,2.8c-0.3,1.5-1.7,4.3-1,5.8
			c0.1,0.2,0.2,0.2,0.3,0.3c1.5,0.1,2.9-1.1,4-1.8c1.7-1.1,2-1.3,3.6-2.3c1.7-0.9,5.7-3.6,8-3.1c0.4,0.1,0.6,0.3,1,0.5
			c0.2,0.3,0.5,0.6,0.7,0.9c0.3,0.6,0.6,2.2,0.9,2.8c0.4,1.8,1,3.5,1.7,5c1,2,2.5,4,5.1,4.8c1.8,0.6,2.6,0.5,4.6,0.6
			c4.5-0.1,8.7-0.9,13.1-1.7c0.4-0.1,0.5,0.3,0.1,0.5l0,0c-4.4,0.8-8.7,1.7-13.3,1.7c-2.1-0.2-2.9,0-4.8-0.7c-2.7-0.9-4.3-3-5.3-5.1
			c-0.6-1.7-1.3-3.4-1.8-5.2c-0.2-0.6-0.5-2-0.8-2.7c-0.1-0.2-0.3-0.5-0.5-0.7c-0.2-0.2-0.4-0.3-0.7-0.4c-2.1-0.6-6.1,2.1-7.6,3
			c-1.6,1.1-2.1,1.4-3.7,2.3c-1,0.6-2.6,1.8-4,1.8c-0.2,0-0.5-0.2-0.8-0.3c-0.1-0.2-0.4-0.3-0.4-0.6c-0.5-1.6,0.7-4.4,1-6
			c0.5-1.3,0.8-2.6,1.2-4c0-0.2,0-0.5,0.1-0.7c0-0.2,0.2-0.2,0.2-0.2c0-0.1-0.2-0.1-0.2-0.1c-1.2,0.8-2.4,1.8-3.5,2.7
			c-2.4,1.9-4.7,3.9-7,5.7c-3.8,3.1-8.4,7.2-13.7,8.6c-0.8,0.2-1.7,0.3-2.5,0.4c-0.8,0-1.6,0-2.4-0.1c-4.5-0.7-7.1-4.2-8.8-7.2
			c-0.4-0.8-0.8-1.6-1-2.5c-1.6-4.6-1.5-9.5,0.5-14c0.4-0.8,0.9-1.7,1.3-2.4c2-3.3,5-6.4,8.8-8.4c1.2-0.4,1.9-0.6,3.2-0.4
			c2.5,0.4,3.3,2.6,3.7,4.3c0,0.6,0.2,1.2,0.1,1.9c-0.2,4.8-4.1,8.8-7.4,12.6c-5.6,6-11.6,12.1-20.1,15.6c-3.1,1-4.2,1.4-7.6,1.8
			c-5.2,0.6-10.5-0.3-15.4-1.9c-4-1.6-3.6-1.3-7.5-3.1c-4.2-2-8-4.2-12.5-5.9c-1.5-0.5-2.7-0.9-4.3-0.9c-3,0-3.4,2.5-3.3,4.4
			c0.5,2.1,0.5,2.7,1.9,4.7c2.9,4,7.9,6.3,13,8.1c3.7,0.9,4.9,1.5,8.8,1.9c5.9,0.6,11.8,0.1,17.5-1.3c2.8-0.9,4.8-1.4,7.4-2.8
			c3.1-1.6,5.5-3.9,6.3-6.7c0.2-1,0.3-2,0.3-2.9c-0.3-1.1-0.3-2.2-0.6-3.3c-2.3-7.7-9.3-14.5-14.8-20.9c-0.8-0.9-8.8-9.3-9.5-10.2
			c-4.6-5-9.3-10.2-12.8-15.8c-0.9-1.6-1.9-3.3-2.6-4.8c-1-3.6-2-5-1.4-8.6c1.1-5.8,6.9-9.8,12.5-12.9c1.7-0.7,3.4-1.7,5.1-2.4
			c8.1-3.5,17.1-5.7,26.4-6.6c5.2-0.3,10.7-0.5,15.7,1.3C2.1,313.8,1.8,314.2,1.4,314L1.4,314z"/>
		<path d="M-44.4,413.4c-1.2,0-2.4-0.1-3.5-0.3c-3.1-0.3-4.5-0.7-6.6-1.3c-0.7-0.2-1.5-0.4-2.4-0.6c-6.7-2.2-11.2-5-13.9-8.6
			c-1.4-1.7-1.6-2.6-1.9-3.9c-0.1-0.3-0.2-0.7-0.3-1.1l0-0.2c0-1.3,0-5.4,4.6-5.8c1.5-0.1,2.7,0.3,3.9,0.6c0.4,0.1,0.8,0.2,1.2,0.3
			l0.1,0c3.1,1.1,5.9,2.6,8.6,4c1.3,0.7,2.7,1.4,4,2c3,1.4,3.3,1.6,5.2,2.3c0.5,0.2,1.2,0.5,2.1,0.8c4.9,1.7,9.8,2.3,14.6,1.8
			c2.5-0.3,3.6-0.6,5.5-1.2c0.5-0.1,1-0.3,1.6-0.5c1.5-0.6,2.8-1.3,4.1-2c0.1-0.7,0.1-1.4,0.2-2c-0.1-0.6-0.2-1.1-0.3-1.6
			c-0.1-0.5-0.2-1.1-0.3-1.6c-1.8-6.1-6.7-11.7-11.5-17c-1.1-1.2-2.1-2.4-3.1-3.6c-0.4-0.4-2.5-2.7-4.5-4.8c-2.8-3-4.7-4.9-5-5.4
			c-4.6-4.9-9.3-10.3-12.8-15.9c-0.9-1.7-1.9-3.3-2.7-4.9l0-0.1c-0.2-0.9-0.5-1.6-0.7-2.3c-0.7-2.2-1.2-3.7-0.7-6.6
			c1.2-6.1,7.2-10.2,12.9-13.4l0.1-0.1c0.8-0.4,1.7-0.8,2.5-1.2c0.8-0.4,1.7-0.9,2.6-1.3c8.2-3.6,17.2-5.8,26.7-6.7
			c5.2-0.3,11-0.6,16.2,1.4l0.2,0.1c0.6,0.4,0.7,1,0.3,1.5c-0.4,0.4-1.1,0.6-1.7,0.3c-4.5-1.7-9.6-1.5-14.5-1.2l-0.3,0
			c-9.1,0.7-17.8,2.9-25.8,6.4c-1.2,0.5-2.4,1.1-3.6,1.7c-0.4,0.2-0.9,0.5-1.3,0.7c-5.5,3.1-10.7,6.8-11.8,12.1
			c-0.5,2.8,0,4.1,0.8,6.5c0.2,0.4,0.3,0.9,0.5,1.4c0.8,1.6,1.6,3.2,2.6,4.7c3.4,5.5,8.1,10.7,12.6,15.6c0.3,0.3,1.5,1.6,3.1,3.3
			c2.7,2.8,6,6.3,6.5,6.9c1,1.2,2.1,2.4,3.2,3.6c4.9,5.5,9.9,11.1,11.9,17.6c0.3,1.3,0.5,2.4,0.6,3.5l0,0.1l0,0.1c0,0,0,0,0,0
			c1.1-0.8,2.2-1.6,3.2-2.4c-0.3-0.6-0.6-1.3-0.7-2c-1.7-4.9-1.5-9.9,0.5-14.5c0.2-0.4,0.5-0.8,0.7-1.3c0.2-0.4,0.4-0.8,0.7-1.2
			c2.4-3.8,5.5-6.8,9.2-8.7l0.2-0.1l0.4-0.1c1-0.3,1.9-0.6,3.4-0.3c3.4,0.6,4.2,3.8,4.5,5l0,0.2c0,0.2,0,0.5,0.1,0.8
			c0,0.3,0.1,0.7,0.1,1.1c-0.2,4.7-3.8,8.7-6.9,12.3l-0.7,0.8c-2.6,2.7-5.4,5.7-8.5,8.3c0,0,0,0.1,0,0.1c1.6,2.7,3.9,5.8,7.6,6.4
			c0.4,0.1,0.8,0.1,1.3,0.1c0.2,0,0.4,0,0.6,0c0.2,0,0.5-0.1,0.8-0.1c0.5-0.1,0.9-0.1,1.3-0.2c4.4-1.1,8.6-4.5,11.9-7.3
			c0.4-0.4,0.9-0.7,1.3-1c1.2-1,2.3-1.9,3.5-2.9c1.2-1,2.3-1.9,3.5-2.9c1.2-1,2.5-2,3.7-2.8l0.3-0.2l0.4,0c0.2,0,0.4-0.1,0.6-0.1
			l0.3,0l0.3,0.2c1.3,0.8,0.6,2.5,0.2,3.5l0,0.1c-0.2,1.1-0.5,1.8-0.8,2.7c-0.1,0.5-0.3,1.1-0.5,1.7c-0.4,1.1-0.8,2.5-0.7,3.4
			c0.8-0.2,1.7-0.8,2.3-1.2l0.4-0.3c0.9-0.5,1.3-0.8,1.8-1.1c0.5-0.3,1-0.6,1.8-1.1c0.4-0.2,0.8-0.4,1.2-0.7
			c2.3-1.3,5.4-3.1,7.7-2.5c0.5,0.1,0.8,0.3,1.1,0.5l0.4,0.2l0.1,0.2c0.1,0.1,0.2,0.2,0.3,0.3c0.1,0.2,0.3,0.4,0.4,0.6
			c0.2,0.4,0.3,0.9,0.5,1.5c0.1,0.5,0.3,1,0.4,1.3l0.1,0.1c0.5,2,1,3.6,1.7,4.9c1.2,2.3,2.7,3.7,4.5,4.3c1.4,0.4,2,0.4,3.5,0.5
			l0.7,0c3.9-0.1,7.5-0.7,11.4-1.5l1.4-0.3c0.7-0.1,1.3,0.2,1.5,0.7c0.2,0.5-0.1,1.1-0.8,1.3l-0.2,0l-1.6,0.3
			c-4,0.7-7.7,1.4-11.9,1.5l-0.1,0l-0.1,0c-0.5,0-0.9-0.1-1.3-0.1c-1.3-0.1-2.2-0.1-3.8-0.7c-2.5-0.9-4.5-2.7-5.9-5.6
			c-0.7-1.8-1.3-3.5-1.8-5.3c-0.1-0.2-0.1-0.5-0.2-0.8c-0.2-0.6-0.4-1.4-0.5-1.8c-0.1-0.2-0.2-0.3-0.3-0.5c-0.1-0.1-0.2-0.1-0.2-0.2
			c-1.3-0.4-4.8,1.7-6.1,2.5c-0.2,0.1-0.4,0.3-0.6,0.4l-0.8,0.5c-1.1,0.7-1.6,1-3,1.8c-0.2,0.1-0.4,0.2-0.6,0.4
			c-1.1,0.7-2.4,1.6-3.9,1.6c-0.4,0-0.7-0.1-0.9-0.2c-0.1,0-0.2-0.1-0.2-0.1l-0.4-0.1l-0.2-0.3c-0.2-0.2-0.4-0.4-0.5-0.8
			c-0.4-1.4,0.2-3.2,0.7-4.9c0.2-0.5,0.3-1,0.4-1.4c0.3-0.9,0.6-1.8,0.8-2.6c0,0,0,0,0,0c-0.4,0.4-0.9,0.7-1.3,1
			c-0.9,0.7-1.9,1.5-2.8,2.3c-1.4,1.1-2.8,2.3-4.2,3.4l-1,0.8c-3.8,3.1-8,6.6-13.1,8c-0.6,0.2-1.2,0.2-1.8,0.3
			c-0.3,0-0.6,0.1-0.8,0.1l-0.2,0c-0.3,0-0.5,0-0.8,0c-0.6,0-1.2,0-1.8-0.1c-3.6-0.6-6.5-2.8-9-6.6c-1.4,1.1-2.9,2.1-4.4,3.1
			c0,0.3-0.1,0.5-0.2,0.8c-1,3.7-4.3,6.2-6.9,7.6c-2.1,1.2-3.8,1.7-5.7,2.3c-0.6,0.2-1.3,0.4-2,0.6
			C-34.6,413.1-39.6,413.6-44.4,413.4z M-70.5,396.9c0.1,0.3,0.1,0.6,0.2,0.8c0.3,1.4,0.5,2,1.6,3.5c2.4,3.2,6.3,5.6,12.5,7.7
			c0.7,0.2,1.4,0.4,2,0.5c2.2,0.6,3.6,1,6.5,1.3c5.6,0.6,11.4,0.2,17-1.3l0.1,0c2.7-0.8,4.5-1.4,7.1-2.7c2.3-1.3,4-2.7,5-4.4
			c-0.7,0.3-1.4,0.6-2.1,0.9l-1.2,0.4c-2.3,0.8-3.6,1.2-6.7,1.5c-5,0.6-10.3-0.1-15.9-1.9c-1.2-0.5-2-0.8-2.6-1
			c-1.6-0.6-2.2-0.9-5-2.1c-1.4-0.6-2.7-1.3-4-2c-2.8-1.4-5.5-2.8-8.4-3.9l-0.5-0.2c-1.2-0.4-2.1-0.7-3.4-0.7
			c-0.6,0-1.1,0.2-1.5,0.5C-70.3,394.4-70.6,395.5-70.5,396.9z M0.3,370.2c-3.2,1.7-6,4.4-8.1,7.8c-0.2,0.4-0.4,0.8-0.6,1.2
			c-0.2,0.4-0.4,0.8-0.7,1.2c-1.8,4.2-1.9,8.9-0.4,13.2c0,0.1,0.1,0.2,0.1,0.3c2.6-2.3,4.9-4.8,7.3-7.3l0.9-1c3-3.4,6.1-6.9,6.3-11
			c0-0.2,0-0.5-0.1-0.8c0-0.3-0.1-0.6-0.1-0.9c-0.6-2-1.4-3-2.5-3.2c-0.6-0.1-1.1,0.1-1.8,0.3L0.3,370.2z"/>
	</g>
	<g id="path953">
		<path inkscape:connector-curvature="0" d="M-129.5,389.3c0.6,1.1,1,2.2,2.1,2.7c0.2,0.1-0.3,0-0.4-0.2c0-0.2,0.2-0.2,0.3-0.3
			l0.8,0.1l0,0c-1.7,1.7-3.1-1.2-3.6-2.4L-129.5,389.3L-129.5,389.3z"/>
		<path d="M-127.8,392.9c-0.1,0-0.1,0-0.2,0c-1.6-0.2-2.5-1.8-3.2-3.4l-0.6-1.3l3.1,0.4l0.3,0.6c0.3,0.5,0.5,1,0.8,1.4l2.8,0.4
			l-1,1.1c-0.2,0.2-0.4,0.3-0.6,0.5l0,0.2l-0.4,0C-127.2,392.9-127.5,392.9-127.8,392.9z"/>
	</g>
</g>
<g>
	<path d="M-161.2,388.7h-12.6l-2.6,5.9h-3.5l10.7-23.7h3.3l10.7,23.7h-3.5L-161.2,388.7z M-162.3,386l-5.1-11.6l-5.1,11.6H-162.3z"
		/>
	<path d="M-124.2,378.5c1.3,1.3,2,3.2,2,5.8v10.3h-3.2v-9.9c0-1.7-0.4-3-1.2-3.9c-0.8-0.9-1.9-1.3-3.4-1.3c-1.6,0-3,0.5-3.9,1.5
		c-1,1-1.5,2.5-1.5,4.4v9.2h-3.2v-9.9c0-1.7-0.4-3-1.2-3.9s-1.9-1.3-3.4-1.3c-1.6,0-3,0.5-3.9,1.5c-1,1-1.5,2.5-1.5,4.4v9.2h-3.2
		v-17.9h3.1v2.7c0.7-0.9,1.5-1.6,2.6-2.1s2.3-0.7,3.6-0.7c1.4,0,2.6,0.3,3.7,0.8c1.1,0.6,1.9,1.4,2.5,2.5c0.7-1,1.6-1.8,2.8-2.4
		s2.6-0.9,4.1-0.9C-127.3,376.6-125.5,377.2-124.2,378.5z"/>
	<path d="M-116.2,372.7c-0.4-0.4-0.6-0.9-0.6-1.5s0.2-1.1,0.6-1.5s0.9-0.6,1.6-0.6c0.6,0,1.2,0.2,1.6,0.6s0.6,0.9,0.6,1.5
		s-0.2,1.1-0.6,1.5s-0.9,0.6-1.6,0.6S-115.8,373.1-116.2,372.7z M-116.3,376.7h3.2v17.9h-3.2V376.7z"/>
	<path d="M-96.8,393.6c-0.5,0.4-1.1,0.7-1.8,0.9c-0.7,0.2-1.4,0.3-2.2,0.3c-1.8,0-3.2-0.5-4.2-1.5s-1.5-2.4-1.5-4.2v-9.8h-3v-2.7h3
		v-3.9h3.2v3.9h5.1v2.7h-5.1v9.7c0,1,0.2,1.7,0.7,2.2s1.2,0.8,2.1,0.8c1,0,1.8-0.3,2.5-0.8L-96.8,393.6z"/>
	<path d="M-81.5,394.1c-1.7-0.6-3-1.3-3.9-2.1l1.2-2.6c0.9,0.8,2.1,1.5,3.5,2s2.9,0.8,4.3,0.8c2,0,3.4-0.3,4.4-1s1.5-1.5,1.5-2.7
		c0-0.8-0.3-1.5-0.8-2s-1.2-0.9-2-1.2c-0.8-0.3-1.9-0.6-3.3-0.9c-1.8-0.4-3.2-0.9-4.3-1.3c-1.1-0.4-2-1.1-2.8-2s-1.2-2.1-1.2-3.6
		c0-1.3,0.3-2.4,1-3.4s1.7-1.8,3-2.4c1.4-0.6,3-0.9,5-0.9c1.4,0,2.8,0.2,4.1,0.5c1.4,0.4,2.5,0.9,3.5,1.6l-1.1,2.7
		c-1-0.6-2-1.1-3.2-1.4c-1.1-0.3-2.2-0.5-3.3-0.5c-1.9,0-3.4,0.4-4.3,1s-1.4,1.6-1.4,2.7c0,0.8,0.3,1.5,0.8,2s1.2,0.9,2,1.2
		c0.8,0.3,1.9,0.6,3.3,0.9c1.8,0.4,3.2,0.9,4.3,1.3c1.1,0.4,2,1.1,2.8,2s1.2,2.1,1.2,3.5c0,1.2-0.3,2.4-1,3.4s-1.7,1.8-3.1,2.4
		s-3.1,0.9-5.1,0.9C-78.2,394.9-79.9,394.6-81.5,394.1z"/>
	<path d="M-46.6,386.8h-14.5c0.2,1.6,0.9,2.8,2.1,3.8c1.2,1,2.7,1.4,4.4,1.4c2.1,0,3.9-0.7,5.2-2.2l1.8,2.1c-0.8,0.9-1.8,1.7-3,2.2
		s-2.6,0.7-4,0.7c-1.9,0-3.6-0.4-5-1.2c-1.5-0.8-2.6-1.9-3.4-3.3c-0.8-1.4-1.2-3-1.2-4.7s0.4-3.3,1.2-4.7c0.8-1.4,1.8-2.5,3.2-3.3
		s2.9-1.2,4.6-1.2c1.7,0,3.2,0.4,4.6,1.2c1.3,0.8,2.4,1.9,3.1,3.3c0.8,1.4,1.1,3,1.1,4.8C-46.6,386-46.6,386.4-46.6,386.8z
		 M-59.3,380.7c-1,0.9-1.7,2.2-1.8,3.7h11.5c-0.2-1.5-0.8-2.7-1.8-3.7s-2.3-1.4-3.9-1.4S-58.3,379.8-59.3,380.7z"/>
	<path d="M-27.1,378.5c1.3,1.3,2,3.3,2,5.8v10.3h-3.2v-9.9c0-1.7-0.4-3-1.2-3.9c-0.8-0.9-2-1.3-3.6-1.3c-1.8,0-3.1,0.5-4.2,1.5
		c-1,1-1.5,2.5-1.5,4.4v9.2H-42v-17.9h3.1v2.7c0.7-0.9,1.5-1.6,2.7-2.1c1.1-0.5,2.4-0.7,3.8-0.7C-30.2,376.6-28.4,377.2-27.1,378.5z
		"/>
</g>
</svg>
