<?xml version="1.0" encoding="utf-8"?>
<!-- Generator: Adobe Illustrator 19.0.0, SVG Export Plug-In . SVG Version: 6.00 Build 0)  -->
<svg version="1.1"
	 id="svg8" xmlns:inkscape="http://www.inkscape.org/namespaces/inkscape" xmlns:svg="http://www.w3.org/2000/svg" xmlns:dc="http://purl.org/dc/elements/1.1/" xmlns:cc="http://creativecommons.org/ns#" xmlns:rdf="http://www.w3.org/1999/02/22-rdf-syntax-ns#" xmlns:sodipodi="http://sodipodi.sourceforge.net/DTD/sodipodi-0.dtd" inkscape:version="0.92.4 (5da689c313, 2019-01-14)" sodipodi:docname="MySignature.svg"
	 xmlns="http://www.w3.org/2000/svg" xmlns:xlink="http://www.w3.org/1999/xlink" x="0px" y="0px" viewBox="-291 165.4 376.9 230.6"
	 style="enable-background:new -291 165.4 376.9 230.6;" xml:space="preserve">
<sodipodi:namedview  borderopacity="1.0" pagecolor="#ffffff" id="base" inkscape:cx="478.98712" bordercolor="#666666" inkscape:cy="406.45061" showgrid="false" inkscape:zoom="0.57769471" inkscape:document-units="mm" inkscape:current-layer="layer1" inkscape:window-width="1920" inkscape:window-x="-8" inkscape:window-height="1028" inkscape:pageopacity="0.0" inkscape:window-y="-8" inkscape:window-maximized="1" inkscape:pageshadow="2">
	</sodipodi:namedview>
<g>
	<g id="path2196">
		<path inkscape:connector-curvature="0" d="M-243,272.9c0-0.1,0-0.3-0.1-0.3c-0.2,0-0.2,0.2-0.4,0.3c-1.8,1.3-0.7,0.2-2.8,2.3
			c-2.6,2.4-2.8,2.7-5.3,5.6c-6.6,7.7-12.6,16-17.9,24.7c-1.1,1.7-2,3.5-3,5.2c-3.9,6.5-6.5,13.6-10,20.2c0.2-0.1-0.8,1.3-1.1,0.9
			c-0.6-0.6-0.3-1.6-0.2-2.2c0.3-1.6,0.5-2.2,1-3.9c1.4-4.9,3.9-9.4,6.4-13.9c0.5-0.8,0.9-1.4,1.3-2.2c0.2-0.3,0.6,0,0.4,0.3l0,0
			c-0.5,0.8-0.9,1.4-1.3,2.2c-2.5,4.4-4.8,8.9-6.4,13.8c-0.5,1.7-0.7,2.1-1,3.8c-0.1,0.4-0.1,0.9-0.2,1.3c0,0.2-0.2,0.3-0.2,0.5
			l0.1,0.1c0.2-0.2,0.4-0.5,0.6-0.7c3.6-6.6,6.2-13.8,10-20.2c1-1.7,2-3.5,3-5.2c5.3-8.8,11.3-17.1,18-24.8c2.2-2.5,4.5-5.1,7.1-7.1
			c0.5-0.4,1.4-1.3,2.2-0.8c0.2,0.1,0.1,0.4,0.1,0.6C-242.7,273.3-243.1,273.2-243,272.9L-243,272.9z"/>
		<path d="M-284.8,333.1l0.4-0.8c-0.1-0.2-0.2-0.3-0.3-0.5l-0.1-0.1v-0.1c-0.3-0.8-0.1-1.6,0-2.1l0-0.2c0.3-1.5,0.5-2.2,0.9-3.5
			l0.1-0.5c1.5-5.1,4.1-10,6.4-14.1c0.3-0.4,0.5-0.8,0.7-1.1c0.2-0.4,0.4-0.7,0.7-1.1c0.3-0.4,0.7-0.6,1.1-0.6c0.4,0,0.8,0.3,1,0.7
			c0.1,0.2,0.1,0.3,0.1,0.5c0.4-0.7,0.8-1.5,1.3-2.2c0.5-0.9,1-1.7,1.5-2.6c5.5-9,11.5-17.4,18.1-24.9c2.1-2.4,4.5-5.1,7.3-7.3
			l0.1-0.1c0.6-0.5,1.9-1.6,3.2-0.8c0.3,0.1,0.6,0.5,0.6,1.3v0.6l-0.6,0.3c-0.4,0.2-0.9,0-1.2-0.2c-0.3,0.2-0.5,0.3-0.6,0.4
			c-0.2,0.1-0.2,0.1-0.8,0.7l-0.8,0.8c-2.3,2.2-2.7,2.6-4.6,4.7l-0.7,0.8c-6.4,7.5-12.4,15.7-17.8,24.5c-1.1,1.7-2,3.5-3,5.2
			c-2.2,3.7-4,7.6-5.7,11.4c-1.3,2.9-2.7,5.8-4.2,8.6c-0.2,0.7-1.1,1.4-1.1,1.4c-0.3,0.2-0.7,0.3-0.9,0.2l-0.1,0.1l-0.1-0.1
			c-0.1,0-0.1,0-0.2-0.1L-284.8,333.1z M-276.8,315.4c-1.5,2.7-2.7,5.3-3.7,7.9c0.3-0.6,0.5-1.2,0.8-1.7
			C-278.8,319.5-277.8,317.5-276.8,315.4z"/>
	</g>
	<g id="path2198">
		<path inkscape:connector-curvature="0" d="M-275.9,287.9c0.1-1,0.1-1.8,0.4-2.8c1.8-7,6.6-15,11.3-20.4c1.5-1.8,3.3-3.4,4.9-5.1
			c1.8-1.5,3.7-3.2,5.6-4.5c7.7-5.5,16.7-9.2,25.9-11.1c1.9-0.4,4-0.6,6-0.9c1.7,0,3.6-0.2,5.3-0.1c4.3,0.2,10.4,1.4,12,6.3
			c0.3,1,0.3,2,0.4,3c-0.3,1.2-0.4,2.3-0.8,3.5c-2.4,6.4-8.4,11.9-13.5,16.1c-1.7,1.3-3.6,2.6-5.3,4c-8.5,5.6-17.4,10.9-27.5,13.4
			c-1.4,0.4-3,0.6-4.4,0.8c-1.3,0-2.6,0.2-3.9,0.1c-2.8-0.2-5.8-1.2-7.4-3.7c-1.2-1.8-0.9-2.7-0.8-4.8c0.3-0.9,0.5-1.8,0.9-2.7
			c1.9-4.3,5.8-7.5,10-9.2c1.2-0.5,2.3-0.8,3.5-1.1c1.2-0.2,2.3-0.4,3.5-0.5c2.5-0.1,5.8,0.4,7.4,2.6c1.2,1.6,0.8,2.5,0.6,4.4
			c-0.4,0.9-0.7,1.7-1.1,2.6c-1.1,1.9-2.7,3.9-4,5.4c-2.3,2.6-4.8,5.1-7.3,7.6c-1.6,1.5-3.2,3.3-5,4.6c-0.3,0.2-1.2,0.9-1.6,0.6
			c-0.2-0.1-0.3-0.4-0.5-0.6c-0.2-0.3,0.2-0.6,0.4-0.3l0,0c0,0.1,0,0.3,0,0.3c0.4,0.2,1.3-0.4,1.3-0.5c1.8-1.3,3.4-3,5-4.5
			c2.5-2.5,5-4.9,7.3-7.5c1.4-1.6,3-3.5,4-5.3c0.4-0.8,0.7-1.6,1.1-2.4c0.2-1.6,0.6-2.5-0.5-4c-1.5-2.1-4.6-2.6-7-2.5
			c-1.2,0-2.2,0.3-3.4,0.4c-1.2,0.4-2.3,0.6-3.4,1.1c-4.1,1.7-7.9,4.8-9.8,9c-0.4,0.9-0.6,1.7-0.9,2.6c-0.1,1.9-0.4,2.8,0.7,4.5
			c1.4,2.4,4.4,3.3,7,3.5c1.3,0.1,2.5,0,3.9-0.1c1.4-0.3,3-0.4,4.4-0.8c9.9-2.4,18.9-7.7,27.3-13.3c1.7-1.3,3.6-2.5,5.3-4
			c5.1-4,11-9.5,13.4-15.8c0.4-1.1,0.5-2.2,0.8-3.3c-0.1-1,0-1.9-0.3-2.8c-1.5-4.6-7.5-5.8-11.7-6c-1.7-0.1-3.5,0.1-5.2,0.1
			c-1.9,0.3-4,0.5-5.9,0.9c-9.2,1.8-18.1,5.6-25.7,11.1c-1.9,1.3-3.8,3-5.6,4.5c-1.6,1.7-3.4,3.3-4.8,5.1
			c-4.6,5.4-9.3,13.3-11.2,20.2c-0.2,0.9-0.2,1.7-0.4,2.7C-275.3,288.2-275.8,288.3-275.9,287.9L-275.9,287.9z"/>
		<path d="M-260.6,296.9c-0.3,0-0.5-0.1-0.8-0.2c-0.3-0.1-0.5-0.4-0.6-0.6c0,0-0.1-0.1-0.1-0.1l-0.1-0.1c-0.3-0.4-0.3-0.8-0.1-1.2
			c0.2-0.4,0.6-0.6,1-0.7c0.3,0,0.6,0.1,0.8,0.3c0.1,0,0.1-0.1,0.2-0.1c1.3-1,2.4-2.1,3.6-3.2c-0.1,0-0.3,0-0.4,0
			c-0.8,0-1.6,0.1-2.5,0c-2.6-0.2-6.2-1-8.2-4.1c-1.2-1.8-1.1-3-1-4.5c0-0.3,0-0.6,0.1-0.9l0-0.3c0.1-0.3,0.2-0.6,0.3-0.9
			c0.2-0.6,0.4-1.2,0.6-1.9c1.9-4.2,5.7-7.8,10.5-9.8c1.2-0.5,2.4-0.8,3.6-1.1c1.2-0.2,2.4-0.4,3.6-0.5c2.2-0.1,6.2,0.2,8.3,3
			c1.2,1.7,1,2.8,0.9,4.2c0,0.3-0.1,0.5-0.1,0.9l0,0.2l-0.1,0.1c-0.2,0.4-0.4,0.8-0.5,1.3c-0.2,0.4-0.3,0.9-0.5,1.3
			c-1.1,2-2.7,3.9-4.2,5.6c-1.1,1.2-2.2,2.4-3.3,3.5c9.2-2.6,17.5-7.6,25-12.7c0.7-0.5,1.4-1.1,2.2-1.6c1-0.7,2-1.5,3-2.3
			c7-5.5,11.2-10.6,13.1-15.4c0.2-0.5,0.3-1.1,0.4-1.8c0.1-0.4,0.2-0.8,0.3-1.2c0-0.3,0-0.6,0-0.8c0-0.6,0-1.1-0.2-1.6
			c-1.4-4.3-7.4-5.2-10.8-5.3c-1-0.1-2,0-3,0c-0.7,0-1.4,0.1-2.1,0.1c-0.7,0.1-1.3,0.2-2,0.3c-1.3,0.2-2.6,0.3-3.8,0.6
			c-9.3,1.9-18,5.6-25.3,10.9c-1.5,1.1-3,2.3-4.4,3.5l-1.1,0.9c-0.5,0.6-1.1,1.1-1.6,1.7c-1.1,1.1-2.2,2.2-3.1,3.3
			c-5.1,5.9-9.4,13.7-11,19.9c-0.1,0.4-0.1,0.8-0.2,1.2c0,0.5-0.1,0.9-0.2,1.4l-0.2,0.8h-0.8c-1.3,0.1-1.6-0.6-1.7-1l0-0.2l0-0.2
			c0-0.2,0-0.4,0.1-0.7c0.1-0.7,0.1-1.5,0.4-2.3c1.7-6.4,6.2-14.6,11.5-20.8c1-1.2,2.1-2.2,3.1-3.3c0.6-0.6,1.2-1.2,1.8-1.9l0.1-0.1
			l1.1-1c1.5-1.2,3-2.5,4.5-3.6c7.7-5.5,16.8-9.4,26.3-11.2c1.3-0.3,2.7-0.4,4.1-0.6c0.6-0.1,1.3-0.2,1.9-0.3l0.1,0
			c0.7,0,1.4,0,2.1-0.1c1.1,0,2.2-0.1,3.3,0c4,0.2,11,1.3,12.9,6.9c0.3,0.9,0.3,1.7,0.4,2.5c0,0.2,0,0.5,0.1,0.7l0,0.2l0,0.2
			c-0.1,0.4-0.2,0.9-0.3,1.3c-0.1,0.7-0.3,1.5-0.5,2.2c-2.6,6.9-9.1,12.7-13.8,16.5c-0.9,0.7-1.8,1.3-2.7,2c-0.9,0.6-1.8,1.3-2.6,2
			c-8.4,5.6-17.6,11-27.8,13.6c-0.6,0.2-1.1,0.3-1.7,0.4c-0.3,0.3-0.6,0.6-0.9,0.9c-0.5,0.5-1,1-1.5,1.5c-1.1,1.1-2.3,2.3-3.7,3.3
			l-0.1,0.1C-259.2,296.4-259.9,296.9-260.6,296.9z M-266.2,281.7c0,0.3,0,0.5,0,0.7c-0.1,1.3-0.1,1.9,0.6,3.1
			c1.4,2.3,4.5,2.9,6.3,3c1.1,0.1,2.3,0,3.6-0.1l0.1,0c0.6-0.1,1.2-0.2,1.8-0.3c0,0,0,0,0.1,0l0.1-0.1c2-2,4-3.9,5.8-6
			c1.4-1.6,2.9-3.4,3.9-5.1c0.2-0.3,0.3-0.7,0.5-1.1c0.2-0.4,0.3-0.8,0.5-1.1c0-0.2,0.1-0.4,0.1-0.6c0.2-1.1,0.2-1.6-0.4-2.6
			c-1.5-2-4.8-2.1-6.2-2.1c-0.7,0-1.3,0.1-1.9,0.2c-0.4,0.1-0.9,0.1-1.3,0.2c-0.4,0.1-0.8,0.3-1.3,0.4c-0.7,0.2-1.3,0.4-1.9,0.6
			c-4.3,1.8-7.7,4.9-9.4,8.5c-0.2,0.5-0.4,1-0.5,1.6C-266,281.2-266.1,281.5-266.2,281.7z"/>
	</g>
	<g id="path2200">
		<path inkscape:connector-curvature="0" d="M-270.1,327.1c0.4-0.1,0.8-0.1,1.2-0.2c3.5-1,6.6-3.7,9.3-6c2.9-2.7,5.8-5.7,7.4-9.3
			c0.2-0.5,0.4-1,0.6-1.5c0.1-0.8,0.8-2.1,0-2.8c-0.6-0.5-1.8,0.4-2.2,0.6c-2.1,1.6-3.7,4-4,6.7c-0.1,0.5-0.1,1.1-0.1,1.5
			c0.2,1.9,0.9,4,3,4.6c0.4,0.1,0.8,0.1,1.1,0.1c3.4-0.3,6.5-2.1,9.3-3.8c2.6-1.6,5.1-3.6,7.3-5.7c0.1,1,0.4-0.7,0.5-0.5
			c0.1,0.1,0.2,0.3,0.2,0.5c0,0.1-1.3,1.9-1.3,1.9c-1.6,2.1-2.8,4.4-3.5,6.9c-0.2,1.3-0.4,3.2,0.9,4.1c0.2,0.1,0.4,0.2,0.7,0.4
			c2.3,0.7,4.7,0.3,7-0.2c3-0.7,5.4-2.6,7.7-4.6c2.1-2.1,4-4.5,5.3-7.2c0.2-0.8,1.3-3,0.2-3.6c-1.3,1-1.8,2.5-2.4,3.9
			c-1.2,2.6-2.1,5.4-3,8.1c-0.1,0.8-0.9,2.9,0.3,3.4c0.2,0.1,0.3,0.1,0.5,0.1c2.2-0.2,3.5-2,4.6-3.7c1.2-1.8,0.6-0.9,1.7-2.7
			c0.2-0.3,0.6,0,0.4,0.3l0,0c-1.2,1.8-0.6,1-1.7,2.8c-1.3,1.8-2.7,3.8-5.1,3.9c-0.2-0.1-0.5-0.1-0.7-0.2c-1.3-0.7-0.6-2.8-0.4-3.9
			c0.8-2.8,1.7-5.6,3-8.2c0.5-1.1,1.4-3.5,2.6-4c0.2-0.1,0.4,0,0.6-0.1c0.1,0.1,0.3,0.2,0.4,0.3c0.8,1-0.1,2.9-0.4,3.9
			c-1.3,2.8-3.3,5.2-5.4,7.4c-2.3,2.1-4.8,4-7.9,4.7c-2.4,0.5-5,0.9-7.4,0.1c-0.3-0.1-0.5-0.3-0.8-0.4c-1.3-1.1-1.3-3.1-1-4.5
			c0.7-2.6,1.9-5,3.6-7.1c0.1-0.1,1.3-1.9,1.3-2c0.2-0.1,0.3,0.1,0.5,0.2l-0.1,0.1c-0.1,0.1-0.3,0.3-0.4,0.4c-2.2,2.2-4.8,4-7.4,5.8
			c-3,1.7-6.2,3.6-9.6,3.9c-0.4-0.1-0.9-0.1-1.3-0.2c-2.3-0.7-3.2-2.9-3.3-5c0-0.6,0-1.1,0.1-1.6c0.5-2.8,2-5.3,4.3-7
			c0.7-0.4,1.3-0.9,2.1-0.8c1.7,0.2,1.1,2.6,0.8,3.6c-0.2,0.5-0.4,1.1-0.6,1.5c-1.7,3.8-4.6,6.7-7.6,9.5c-2.8,2.4-6,5.1-9.6,6.1
			c-0.4,0.1-0.8,0.1-1.2,0.2C-270.5,327.6-270.5,327.1-270.1,327.1L-270.1,327.1z"/>
		<path d="M-270.1,328.8l-0.3-0.1c-0.7-0.3-1.1-0.9-1-1.6c0.1-0.5,0.5-0.9,1.1-1c0.2,0,0.4-0.1,0.6-0.1c0.2,0,0.3,0,0.5-0.1
			c3.3-0.9,6.4-3.6,9-5.8c0.5-0.4,0.9-0.9,1.4-1.3c-0.3-0.7-0.4-1.6-0.5-2.5c0-0.7,0-1.2,0.1-1.8c0.5-3,2.2-5.8,4.7-7.6l0.4-0.2
			c0.7-0.4,1.5-0.9,2.5-0.7c0.9,0.1,1.3,0.6,1.6,0.9c0.7,1.1,0.4,2.6,0,3.9c-0.1,0.3-0.2,0.6-0.3,0.8c-0.1,0.3-0.2,0.5-0.3,0.8
			c-1.3,2.7-3.1,5-4.9,7c0.4,0.3,0.7,0.4,0.9,0.5c0.2,0.1,0.6,0.1,0.8,0.1c2.9-0.3,5.7-1.9,8.5-3.4l0.4-0.2c2.6-1.6,5-3.5,7.1-5.5
			l0.3-0.3c0.1-0.2,0.2-0.3,0.4-0.4l0.7-0.7l0.1,0.6l0.2,0l0.2,0.5c0,0,0.1,0.1,0.1,0.1c0,0,0,0,0,0l1.2,0.6l-1.4,1.4
			c-0.1,0.1-0.2,0.2-0.3,0.3c-0.2,0.3-0.4,0.6-0.8,1c-1.6,2-2.7,4.2-3.3,6.6c-0.2,1.2-0.3,2.5,0.4,3.1c0.2,0.1,0.3,0.2,0.6,0.3
			c2.1,0.6,4.3,0.2,6.4-0.2c2.7-0.6,5-2.4,7.1-4.3c0.8-2.6,1.6-4.8,2.6-6.9l0.1-0.3c0.8-1.8,1.7-3.6,3-4.1c0.2-0.1,0.5-0.1,0.6-0.1
			l0.5-0.3l0.5,0.5c0.2,0.1,0.3,0.2,0.4,0.3l0.1,0.1c1,1.2,0.4,3-0.1,4.2c-0.1,0.2-0.1,0.4-0.2,0.5l-0.1,0.1c-1.2,2.5-3,5-5.6,7.7
			c0,0-0.1,0.1-0.1,0.1c0,0,0,0.1,0,0.1c0,0.2-0.1,0.4-0.1,0.6c-0.1,0.4-0.3,1.5-0.1,1.7l0.1,0c1.6-0.1,2.7-1.6,3.8-3.2l0.1-0.1
			c0.6-0.9,0.7-1.1,0.9-1.3c0.1-0.2,0.3-0.4,0.9-1.3c0.2-0.3,0.5-0.5,0.8-0.5c0.3-0.1,0.6,0,0.9,0.2c0.6,0.4,0.7,1.1,0.3,1.7
			c-0.6,0.9-0.7,1.1-0.8,1.4c-0.1,0.2-0.3,0.5-0.9,1.4c-1.2,1.7-2.9,4.2-5.9,4.3l-0.2,0l-0.2-0.1c0,0-0.1,0-0.1,0
			c-0.2,0-0.4-0.1-0.6-0.2c-1-0.5-1.3-1.4-1.3-2.4c-1.6,1.2-3.5,2.2-5.6,2.7c-2.4,0.5-5.2,0.9-7.9,0.1c-0.3-0.1-0.4-0.2-0.6-0.3
			c-0.1,0-0.1-0.1-0.2-0.1l-0.2-0.1l-0.1-0.1c-1.4-1.1-1.8-3-1.3-5.5c0.3-1.1,0.7-2.1,1.1-3.2c-0.7,0.5-1.4,1-2.1,1.5
			c-3,1.8-6.4,3.7-10.1,4l-0.2,0l-0.2,0c-0.2,0-0.3-0.1-0.5-0.1c-0.3,0-0.5-0.1-0.7-0.1c-0.8-0.2-1.5-0.6-2.1-1.2
			c-0.4,0.4-0.8,0.8-1.2,1.1c-2.7,2.4-6.1,5.3-10,6.3c-0.2,0.1-0.5,0.1-0.7,0.1c-0.2,0-0.3,0-0.5,0.1L-270.1,328.8z M-253.3,308.7
			c-2,1.5-3.3,3.8-3.6,6.1c-0.1,0.4-0.1,1-0.1,1.4c0,0.3,0.1,0.5,0.1,0.7c1.5-1.7,2.9-3.6,3.8-5.7c0.2-0.4,0.3-0.9,0.5-1.4
			c0-0.2,0.1-0.4,0.2-0.7c0.1-0.2,0.2-0.8,0.2-1c-0.2,0.1-0.5,0.2-0.9,0.4C-253.2,308.6-253.3,308.6-253.3,308.7z"/>
	</g>
	<g id="path2202">
		<path inkscape:connector-curvature="0" d="M-178.4,273.7c-4.8,5.7-9.2,11.6-13.6,17.6c-5.2,7.1-9.3,15-13.4,22.8
			c-2.2,4.1-4.1,8.4-6.9,12.1c-0.6,0.8-2.4,2-2.2,0.1c0.5-1.1,1.5-1.4,2.6-1.7c0.8-0.2,1.4-0.6,2.1-1.1c0.3-0.2,0.6,0.2,0.3,0.4l0,0
			c-0.7,0.5-1.4,0.9-2.2,1.2c-0.9,0.3-1.8,0.6-2.3,1.4c-0.4,1.1,1.4-0.2,1.4-0.5c2.8-3.7,4.7-8,6.9-12c4-7.9,8.3-15.7,13.5-22.9
			c4.3-6.1,8.9-11.9,13.7-17.6C-178.5,273.2-178.2,273.4-178.4,273.7L-178.4,273.7z"/>
		<path d="M-214,328.4c-0.2,0-0.4,0-0.5-0.1c-0.4-0.2-1.1-0.6-0.9-2l0-0.2l0.1-0.1c0.7-1.6,2.3-2,3.2-2.3c0,0,0.1,0,0.1,0
			c1.4-2.2,2.6-4.5,3.8-6.8c0.6-1.1,1.1-2.2,1.7-3.3c3.9-7.6,8.2-15.6,13.6-23c4.5-6.3,9-12,13.6-17.5c0.1-0.4,0.4-0.6,0.6-0.7
			l0.7-0.2l0.5,0.6c0.3,0.4,0.3,1,0,1.5l-0.1,0.1c-4.3,5.1-8.6,10.6-13.5,17.6c-5.3,7.3-9.6,15.5-13.3,22.7c-0.5,1-1,1.9-1.5,2.9
			c-0.9,1.8-1.8,3.6-2.9,5.3c0.1,0.1,0.2,0.2,0.3,0.3c0.4,0.6,0.2,1.3-0.3,1.7c-0.5,0.4-1.1,0.7-1.8,1c-0.3,0.4-0.5,0.7-0.8,1.1
			C-212,327.5-213,328.4-214,328.4z"/>
	</g>
	<g id="path2204">
		<path inkscape:connector-curvature="0" d="M-205.7,305.4c3.2-1.7,6.4-3.5,9.9-4.1c0.7-0.1,1.3-0.2,2-0.3c2.4,0,1.3-0.1,3.6,0.3
			c0.3,0.1,0.3,0.5-0.1,0.5l0,0c-2.2-0.4-1.1-0.3-3.4-0.3c-0.7,0.1-1.3,0.1-1.9,0.3c-3.5,0.7-6.6,2.4-9.7,4
			C-205.7,306-206,305.6-205.7,305.4L-205.7,305.4z"/>
		<path d="M-205.5,306.8c-0.4,0-0.9-0.2-1.1-0.6c-0.3-0.5-0.1-1.2,0.4-1.6l0.1,0c3.2-1.7,6.5-3.5,10.2-4.2l2.2-0.3
			c0.5,0,0.9,0,1.1,0c0.8,0,0.8,0,1.6,0.1c0.2,0,0.6,0.1,1,0.2l0.1,0c0.6,0.2,0.9,0.8,0.9,1.4c-0.1,0.6-0.6,1-1.3,1l-0.2,0
			c-0.5-0.1-0.8-0.1-1.1-0.2c-0.5-0.1-0.5-0.1-1.1-0.1c-0.2,0-0.6,0-1,0c-0.2,0-0.4,0-0.6,0.1c-0.4,0-0.8,0.1-1.1,0.2l-0.1,0
			c-3.2,0.6-6.2,2.2-9.1,3.8l-0.3,0.2C-205,306.8-205.3,306.8-205.5,306.8z"/>
	</g>
	<g id="path2206">
		<path inkscape:connector-curvature="0" d="M-196.8,321c0,0.2-0.1,0.4-0.1,0.7c0.2,1.2,1.8,1.7,2.9,1.7c0.4,0,0.9-0.1,1.3-0.2
			c3.7-1,5.9-4,8-7c2.1-3.3,3.5-6.6,3.8-10.5c-0.1-1.3-0.3-3.2-2-3.2c-0.3,0-0.6,0.1-0.9,0.1c-3.5,1.3-5,4-6.6,7.2
			c-1.2,3-1.6,6.3-1.1,9.4c0.1,0.5,0.3,0.9,0.4,1.3c0.2,0.3,0.3,0.7,0.5,1c1.3,1.6,3.3,0.7,4.8,0c3.2-1.9,5.3-5,7-8.2
			c0.8-1.7,2-4,2.1-6c-0.1,0.1,0.1,0.3,0,0.4c-0.1,0.2-0.3,0.3-0.4,0.5c-0.2,0.3-0.3,0.6-0.4,0.8c-0.4,1-0.5,1.3-0.9,2.3
			c-0.6,2.3-1.1,4.8-0.7,7.2c0.1,0.4,0.2,0.8,0.3,1.1c1,2.2,2.2,2.3,4.2,1.5c2.5-1.2,4-3.5,5.3-5.8c1.4-2.6,2.9-5.1,4.2-7.7
			c0.7-1.3,1.2-2.9,2-4.2c1.7-1.3,0.5,2.2,0.4,2.6c-1.2,3.2-2.5,6.4-4,9.4c-0.7,1.3-1.3,2.7-1.7,4.1c-0.2,0.6-0.6,1.3-0.3,1.4
			c0-0.1,0-0.2,0.1-0.3c0.4-0.5,1-0.9,1.4-1.3c1.3-1.3,2.3-2.5,3.4-3.9c2.2-2.9,4.3-5.9,6.9-8.4c0.7-0.6,2.9-2.8,4-2
			c0.2,0.1,0.3,0.4,0.4,0.6c0,0.3,0.1,0.6,0.1,0.9c-0.1,0.8-0.3,1.5-0.6,2.3c-0.5,1.5-1,3-1.5,4.4c-1,2.4-2,4.7-2.8,7.1
			c0,0.1,0.1,0.2,0,0.2c-0.4-0.3,0-0.4,0.2-0.7c0.7-1,1.3-1.9,2-3c2-2.8,3.9-5.7,6.2-8.3c0.9-0.8,2.6-3.1,4-2.7
			c0.2,0.1,0.4,0.2,0.6,0.3c0.1,0.2,0.3,0.4,0.3,0.7c0.4,1.5-1,4.7-1.5,6.2c-0.6,1.4-1.2,2.8-1.7,4.2c-0.3,0.7-0.6,1.4-0.7,2.2
			c0-0.1,0-0.1,0-0.2c0.1-0.3,1.2-1.3,1.4-1.6c0.6-0.8,1.2-1.4,1.7-2.2c1.8-2.4,4-4.5,6.2-6.6c1.1-1,2.2-2.2,3.8-2
			c1.3,0.6,0.9,2.2,0.6,3.4c-0.6,2-1.5,3.9-1.8,6c0,2.7,2.3,3.3,4.4,4c5.4,1.4,10.8-0.3,15.9-2c4.8-1.7,9.6-3.6,14.5-5.4
			c0.3-0.1,0.5,0.3,0.2,0.5l0,0c-4.8,1.8-9.6,3.7-14.5,5.4c-5.3,1.6-10.7,3.5-16.2,2c-2.4-0.9-4.8-1.5-4.8-4.6c0.4-2,1.3-4,1.8-6
			c0.2-0.8,0.8-2.2-0.2-2.8c-1.3-0.2-2.4,1.2-3.4,1.9c-2.1,2-4.2,4.1-6.1,6.6c-0.8,1.1-1.5,2.1-2.4,3.1c-0.2,0.2-0.9,1-1.2,1
			c-0.2,0-0.3-0.2-0.4-0.3c0.1-0.9,0.4-1.5,0.8-2.3c0.6-1.4,1.2-2.8,1.7-4.2c0.6-1.5,1.7-4.1,1.5-5.8c0-0.2-0.1-0.3-0.2-0.5
			c-0.1-0.1-0.2-0.2-0.3-0.3c-1.2-0.5-3,1.9-3.7,2.5c-2.2,2.6-4.1,5.4-6.2,8.2c-1,1.4-0.6,1-1.5,2.2c-0.1,0.1-0.8,1.2-1.1,1.3
			c-0.2,0.1-0.4,0-0.5-0.1c-0.1-0.1,0-0.2,0-0.3c0.7-2.5,1.8-4.8,2.8-7.2c0.9-2.2,1.9-4.7,2-7.1c0-0.1,0-0.2-0.1-0.3
			c-0.6-0.7-3.1,1.5-3.5,1.9c-2.6,2.6-4.7,5.5-6.9,8.4c-1.2,1.3-2.2,2.6-3.5,3.9c-0.1,0.1-1.3,1.3-1.5,1.4c-0.2,0.1-0.5,0.1-0.7,0.1
			c-0.1-0.1-0.2-0.2-0.2-0.4c0-0.3,0.3-1.3,0.4-1.4c0.5-1.4,1.1-2.8,1.7-4.2c1.4-3.1,2.7-6.3,4-9.4c0.2-0.7,0.4-1.1,0.5-1.7
			c0-0.2,0-0.3,0.1-0.5c0,0,0.5-0.4-0.1,0c-0.9,1.3-1.3,2.8-2,4.1c-1.3,2.6-2.8,5.2-4.2,7.7c-1.4,2.3-3,4.7-5.6,6
			c-0.4,0.1-0.7,0.3-1.1,0.4c-1.8,0.4-3.2-0.6-3.9-2.3c-0.1-0.4-0.3-0.8-0.3-1.2c-0.4-2.4,0.1-5,0.7-7.4c0.3-0.7,1.3-4.1,2.3-4.1
			c0.1,0,0.2,0.2,0.2,0.3c-0.2,2.1-1.3,4.2-2.1,6.2c-1.8,3.3-4,6.4-7.3,8.4c-1.7,0.9-4,1.8-5.4-0.2c-0.2-0.3-0.4-0.7-0.6-1.1
			c-0.1-0.5-0.3-0.9-0.4-1.3c-0.7-3.3-0.1-6.6,1.1-9.7c1.6-3.4,3.3-6.2,6.9-7.5c0.4,0,0.7-0.2,1.1-0.1c1.9,0.1,2.3,2.1,2.4,3.7
			c-0.3,4-1.6,7.3-3.9,10.7c-2.1,3.1-4.4,6.3-8.3,7.2c-0.5,0-1,0.2-1.4,0.1c-1.3,0-3.1-0.8-3.3-2.2c0-0.3,0.1-0.5,0.2-0.8
			C-197.1,320.5-196.6,320.8-196.8,321L-196.8,321z"/>
		<path d="M-194.1,324.4c-0.1,0-0.2,0-0.4,0c-1.9,0-3.9-1.2-4.1-3.1l0-0.1c0-0.4,0.1-0.7,0.2-0.9l0.3-0.8h0.7c0.5,0,1.2,0.3,1.5,0.8
			c0.2,0.3,0.2,0.6,0.1,1c0,0.1,0,0.2,0,0.2c0,0,0,0.1,0,0.1c0.2,0.5,1.2,0.9,1.9,0.9c0.1,0,0.4,0,1-0.2c0.3-0.1,0.6-0.2,0.9-0.3
			c-0.2-0.4-0.4-0.7-0.6-1.1l-0.1-0.3c0-0.2-0.1-0.4-0.2-0.6c-0.1-0.3-0.2-0.5-0.2-0.8c-0.6-3.1-0.3-6.6,1.1-10.3
			c1.7-3.4,3.5-6.6,7.5-8.1l0.2-0.1h0.2c0,0,0.1,0,0.2,0c0.2-0.1,0.6-0.1,1,0c1.4,0.1,3,1,3.2,4.6l0,0.1l0,0.1
			c-0.3,3.9-1.5,7.4-4,11.2c-1,1.4-2.1,3-3.5,4.5c0.3-0.1,0.7-0.3,1-0.4l0.1,0c2.5-1.5,4.3-3.9,5.6-6.1c0.2-1.3,0.4-2.6,0.7-3.8
			l0.1-0.2c0-0.1,0.1-0.3,0.2-0.6c0.8-2.3,1.6-4.2,3-4.2c0,0,0.1,0,0.1,0l1-1l-0.1,1.7c0.1,0.2,0.2,0.4,0.2,0.6
			c-0.2,1.9-0.9,3.5-1.6,5.1c-0.2,0.5-0.4,0.9-0.6,1.4l-0.1,0.1c-0.1,0.1-0.1,0.2-0.2,0.3c-0.2,1.4-0.3,2.9-0.1,4.3
			c0.1,0.3,0.2,0.6,0.3,0.9c0.6,1.4,1.2,1.6,3,0.9c2.1-1,3.4-3,4.8-5.4c0.4-0.7,0.8-1.4,1.1-2c1.1-1.9,2.1-3.7,3.1-5.6
			c0.2-0.5,0.4-1,0.7-1.5c0.4-0.9,0.8-1.9,1.4-2.8l0.1-0.1l0.1-0.1c0.9-0.7,1.5-0.5,1.9-0.3c0.9,0.6,0.6,2.1,0.1,3.7l-0.1,0.3
			c-1.1,3-2.4,6.2-4,9.5c-0.2,0.5-0.5,0.9-0.7,1.4c0.6-0.7,1.2-1.4,1.9-2.3c0.4-0.5,0.7-1,1.1-1.4c1.8-2.4,3.7-4.9,5.9-7l0.3-0.3
			c1.1-1,3.3-2.9,4.8-1.9c0.4,0.2,0.6,0.6,0.7,0.9l0.1,0.3v0.2c0,0.1,0,0.2,0,0.3c0,0.2,0.1,0.4,0.1,0.6l0,0.1
			c-0.1,0.8-0.3,1.7-0.6,2.5c-0.3,1-0.7,2.2-1.2,3.4c1.1-1.6,2.3-3.1,3.6-4.6l0.1-0.1c0.2-0.1,0.4-0.4,0.6-0.6
			c1.1-1.2,2.7-2.8,4.3-2.3l0.2,0.1l0.9,0.4l0.1,0.3c0.2,0.2,0.4,0.6,0.4,1c0.3,1.6-0.6,4.1-1.5,6.4l-0.1,0.3
			c-0.1,0.2-0.2,0.5-0.3,0.7c1.5-1.9,3.3-3.7,5.7-5.9l0.3-0.3c1.1-1,2.4-2.2,4.2-2l0.3,0.1c2,0.9,1.5,3.1,1.2,4.3l0,0.2
			c-0.2,0.8-0.5,1.6-0.8,2.3c-0.4,1.2-0.9,2.3-1,3.5c0,1.7,1.2,2.2,3.3,2.9l0.5,0.2c5.2,1.4,10.5-0.4,15.3-2
			c4.8-1.7,9.7-3.6,14.4-5.4c0.6-0.2,1.2,0.1,1.5,0.6c0.3,0.6,0.1,1.2-0.4,1.6l-0.2,0.1c-4.7,1.8-9.6,3.7-14.6,5.4l-0.8,0.2
			c-5.1,1.6-10.5,3.2-16,1.8l-0.5-0.2c-2.3-0.8-5.1-1.8-5.1-5.4l0-0.2c0.3-1.3,0.7-2.6,1.1-3.8c0.3-0.7,0.5-1.5,0.7-2.3
			c0-0.1,0.1-0.2,0.1-0.3c0.1-0.3,0.3-0.9,0.2-1.2c-0.5,0.1-1.1,0.6-1.7,1.1c-0.2,0.2-0.5,0.4-0.7,0.6c-2,1.9-4.1,4-5.9,6.4
			c-0.8,1-1.6,2.1-2.5,3.1l-0.1,0.1c-0.6,0.7-1.1,1.1-1.7,1.1c-0.6,0-0.9-0.4-1.1-0.6l-0.3-0.3l0-0.5c0.1-1.1,0.5-1.9,0.9-2.6
			c0.3-0.7,0.5-1.4,0.8-2.1c0.3-0.7,0.6-1.4,0.9-2.1c0.1-0.2,0.2-0.5,0.3-0.7c0.5-1.4,1.3-3.4,1.2-4.6c-0.5,0.2-1.5,1.3-1.9,1.7
			c-0.2,0.2-0.4,0.5-0.6,0.6c-1.8,2.1-3.3,4.2-5,6.5l-1.1,1.6c-0.3,0.4-0.5,0.7-0.6,0.9c-0.3,0.4-0.3,0.5-1,1.4l-0.1,0.1
			c0,0,0,0-0.1,0.1c-0.4,0.6-0.7,1-1.1,1.2l-0.1,0.1l-0.1,0c0,0,0,0-0.1,0c-0.5,0.2-1.1,0.1-1.5-0.3c-0.1-0.1-0.4-0.5-0.3-1.1l0-0.1
			c0.5-1.8,1.2-3.6,2-5.3c0.3-0.7,0.6-1.4,0.9-2.1l0.2-0.5c0.7-1.7,1.4-3.6,1.7-5.4c-0.6,0.4-1.4,1-1.8,1.5
			c-2.2,2.2-4.1,4.7-6.1,7.2l-1.1,1.3c-1.1,1.3-2.1,2.4-3.3,3.6c-0.8,0.8-1.3,1.2-1.5,1.4l0,0.4l-0.4-0.1c-0.4,0.2-0.8,0.2-1.1,0.2
			h-0.4l-0.3-0.3c-0.1-0.1-0.5-0.5-0.5-1.1c0-0.2,0.2-1.2,0.5-1.8c0.2-0.5,0.4-1,0.6-1.5c-1.2,1.8-2.7,3.6-4.9,4.7l-0.2,0.1
			c-0.1,0-0.3,0.1-0.4,0.1c-0.2,0.1-0.4,0.2-0.7,0.2c-2.2,0.5-4.1-0.6-5-2.9l0-0.1c0-0.1-0.1-0.2-0.1-0.3c-0.1-0.3-0.2-0.6-0.2-1
			c0-0.1,0-0.2,0-0.3c-1.3,1.6-2.8,3.1-4.8,4.3c-1.2,0.6-3.3,1.6-5.1,0.9c-0.7,0.4-1.4,0.7-2.2,0.9l-0.2,0c-0.1,0-0.3,0-0.4,0
			C-193.6,324.4-193.8,324.4-194.1,324.4z M-190.2,320.2c0.1,0.2,0.2,0.3,0.2,0.5c0,0,0,0.1,0,0.1c1.7-1.3,3.1-3.2,4.4-5.1
			c2.2-3.4,3.3-6.5,3.6-9.9c-0.1-1.9-0.5-2.2-1.1-2.2c-0.1,0-0.2,0-0.3,0c-0.1,0-0.3,0-0.4,0.1c-3.1,1.2-4.4,3.7-5.9,6.7
			c-1.1,3-1.5,6-1,8.8c0,0.2,0.1,0.4,0.2,0.6C-190.3,319.9-190.3,320-190.2,320.2z"/>
	</g>
	<g>
		<g id="path2240">
			<path inkscape:connector-curvature="0" d="M-71.9,291.4c1.5-3,3.8-5.5,5.1-8.6c0-0.2,0.1-0.4,0.1-0.5s-0.1,0.1-0.2,0.1
				c-0.2,0.1-0.3,0.2-0.5,0.3c-0.3,0.3-0.6,0.6-0.9,0.9c-1,1.1-1.9,2.3-2.8,3.4c-3.8,4.8-7.5,9.7-10.7,14.9c-0.7,1.2-1.3,2.4-2,3.6
				c-2.8,5-4.8,10.4-5.6,16.1c0,0.2,0,0.5,0,0.7c0,0.1,0-0.2,0-0.2c0.1-0.2,0.2-0.4,0.4-0.6c1-1.6,2-3.3,3.1-4.9
				c2.5-3.6,4.9-7.3,7.6-10.7c0.7-0.8,1.9-2.2,3-1.1c0.5,0.6,0.5,1.3,0.7,2.1c0.3,3.3,0.1,6.6,0.4,9.8c0.2,0.9,0.5,2.2,1.5,2.4
				c1.3,0.3,2.2-1.1,2.9-1.8c3.9-5.6,5.5-12.3,6.9-18.8c1.1-6.2,2-13.5-0.5-19.5c-0.4-1-1-1.7-1.5-2.7c-0.6-0.7-1.2-1.4-1.9-2
				c-2.1-1.6-4.9-2.2-7.5-1.8c-2.7,0.5-3.5,1.2-5.9,2.5c-4.2,3.2-7.4,7.5-9.2,12.5c-1.2,3.2-1.2,4.1-1.6,7.5
				c-0.2,4.8,0.5,9.9,3.1,14.1c0.4,0.6,0.8,1.1,1.2,1.5c2.4,2.5,4.3,2.6,7.6,2c1.9-0.5,3.8-0.9,5.8-1.1c1.5-0.1,1.9-0.1,3.5,0
				c0.6,0.1,1.3,0.1,1.8,0.2c0.3,0,0.3,0.5-0.1,0.5l0,0c-0.6-0.1-1.2-0.1-1.8-0.2c-1.4-0.1-1.9-0.1-3.5,0c-1.9,0.2-3.9,0.6-5.7,1.1
				c-3.4,0.7-5.6,0.5-8-2.1c-0.4-0.6-0.9-1.1-1.3-1.6c-2.7-4.2-3.4-9.4-3.2-14.4c0.5-3.4,0.5-4.3,1.6-7.6c1.8-5.1,5.1-9.5,9.4-12.8
				c2.4-1.3,3.3-2.1,6.1-2.6c2.8-0.5,5.7,0.2,7.9,1.9c0.8,0.6,1.3,1.3,1.9,2.1c0.5,0.9,1.2,1.7,1.5,2.7c2.6,6.1,1.6,13.4,0.5,19.7
				c-1.3,5.9-2.8,11.9-5.9,17.2c-0.4,0.7-0.8,1.3-1.3,1.8c-0.9,0.9-1.3,1.5-2.4,1.8c-1.8,0.5-2.5-1.4-2.8-2.8
				c-0.3-3.3,0-6.6-0.4-9.8c-0.1-0.5-0.2-1.8-0.8-2.1c-0.8-0.3-1.5,0.9-1.9,1.3c-2.7,3.5-5.1,7-7.6,10.7c-1.1,1.6-1.3,2-2.3,3.7
				c-0.2,0.3-1,1.8-1.4,2.1c-0.7,0.3-0.6-1-0.6-1.1c0.9-5.8,2.8-11.2,5.7-16.3c0.7-1.2,1.3-2.4,2-3.6c3.2-5.2,6.9-10.1,10.7-15
				c1-1.3,2.5-3.5,3.9-4.3c0.4-0.2,1.1-0.7,1.3,0.1c0.1,0.2-0.1,0.5-0.1,0.7c-1.3,3.1-3.6,5.7-5.1,8.6
				C-71.7,291.9-72.1,291.7-71.9,291.4L-71.9,291.4z"/>
			<path d="M-89.7,323.3c-0.3,0-0.5-0.1-0.7-0.2c-0.6-0.4-0.7-1.3-0.7-1.8l0-0.1c0.5-3.4,1.4-6.7,2.6-9.9c-0.1-0.1-0.2-0.2-0.3-0.3
				c-0.2-0.3-0.5-0.6-0.7-0.9c-2.5-3.9-3.6-8.9-3.3-14.9l0-0.1c0.1-0.5,0.1-1,0.2-1.4c0.3-2.3,0.5-3.5,1.5-6.4
				c1.9-5.3,5.3-9.9,9.8-13.3l0.1-0.1c0.4-0.2,0.8-0.5,1.2-0.7c1.6-1,2.7-1.6,5.2-2c3.1-0.5,6.3,0.2,8.7,2.1c0.6,0.5,1.1,1,1.5,1.6
				c0.2,0.2,0.4,0.4,0.5,0.7l0.1,0.2c0.2,0.3,0.3,0.6,0.5,0.9c0.4,0.6,0.8,1.2,1.1,1.9c2.6,6.1,1.8,13.3,0.5,20.2
				c-1.3,5.6-2.7,12-6,17.6c-0.4,0.8-0.9,1.4-1.3,2c-0.2,0.2-0.4,0.4-0.5,0.6c-0.6,0.7-1.2,1.3-2.4,1.6c-0.8,0.2-1.5,0.1-2.1-0.3
				c-0.9-0.5-1.5-1.6-1.8-3.3l0-0.1c-0.1-1.1-0.1-2.1-0.1-3.2c-0.9,0.2-1.9,0.4-2.9,0.7c-1.5,0.3-2.8,0.5-4.1,0.3
				c-0.4,0.6-0.8,1.2-1.2,1.8l-1.3,1.9c-0.6,0.9-0.9,1.4-1.6,2.6c-0.1,0.1-0.1,0.2-0.2,0.4c-0.6,1.1-1.1,1.8-1.6,2.1l-0.1,0.1
				C-89.3,323.3-89.5,323.3-89.7,323.3z M-73.3,316.6c0.1,0.6,0.4,1.5,0.8,1.6c0.6,0.1,1.3-0.7,1.8-1.2l0.2-0.2
				c0.8-1.1,1.4-2.3,2.1-3.5c-0.2,0-0.5-0.1-0.7-0.1c-0.3,0-0.6-0.1-1-0.1c-1.3-0.1-1.8-0.1-3.2,0
				C-73.4,314.2-73.4,315.4-73.3,316.6z M-86.3,313.2c-0.5,1.4-0.9,2.8-1.3,4.2c0.3-0.4,0.6-0.9,0.9-1.3c0.5-0.7,1-1.5,1.5-2.2
				C-85.6,313.6-85.9,313.4-86.3,313.2z M-77.4,306.5c-1.4,1.8-2.7,3.6-4,5.5c0.6,0,1.2-0.1,2-0.3c1-0.2,2.1-0.5,3.3-0.7
				c0-1.4-0.1-2.8-0.2-4.2c0,0,0-0.1,0-0.3c0-0.2-0.1-0.6-0.2-0.9c-0.2,0.2-0.4,0.4-0.5,0.6C-77.2,306.3-77.3,306.4-77.4,306.5z
				 M-85.3,310.8c0.5,0.4,1,0.7,1.6,0.9c1.5-2.2,3.1-4.4,4.7-6.5c0.6-0.7,1.6-1.8,2.8-1.9c0.4,0,1,0.1,1.6,0.7
				c0.5,0.7,0.7,1.4,0.8,2c0,0.2,0.1,0.4,0.1,0.6l0,0.1c0.1,1.3,0.2,2.6,0.2,3.8c1.5-0.1,2-0.1,3.5,0l0.1,0c0.3,0,0.5,0.1,0.8,0.1
				c0.3,0,0.6,0.1,0.9,0.1c0.2,0,0.4,0.1,0.6,0.2c1.6-3.9,2.7-8.1,3.7-12.7c1-6.1,2-13.1-0.4-18.9c-0.3-0.6-0.6-1.2-1-1.8
				c-0.1-0.2-0.3-0.5-0.5-0.7l-0.3-0.3c-0.4-0.5-0.9-1.1-1.4-1.5c-1.8-1.4-4.3-2-6.8-1.6c-2,0.4-2.8,0.8-4.4,1.7
				c-0.3,0.2-0.7,0.4-1.1,0.6c-4,3-7.1,7.2-8.9,12c-0.9,2.6-1.1,3.6-1.4,5.9c-0.1,0.4-0.1,0.9-0.2,1.4c-0.2,5.5,0.8,10,2.9,13.4
				c0.6-1.4,1.3-2.7,2.1-4c0.3-0.6,0.7-1.2,1-1.8c0.3-0.6,0.7-1.2,1-1.8c3.2-5.3,7.1-10.3,10.8-15.1l0.5-0.6c1-1.3,2.3-3.1,3.6-3.9
				l0.2-0.1c0.4-0.2,1-0.5,1.7-0.3c0.3,0.1,0.6,0.4,0.8,1c0.2,0.4,0,0.8,0,1c0,0,0,0,0,0v0.1l-0.1,0.2c-0.8,1.9-1.9,3.5-3,5.2
				c-0.7,1.1-1.4,2.2-2.1,3.3c-0.1,0.7-0.6,0.9-0.7,1c-0.4,0.1-0.9,0-1.2-0.4c-0.3-0.4-0.3-0.9-0.1-1.4c0.1-0.2,0.2-0.4,0.3-0.6
				c-3,3.9-5.9,7.9-8.5,12.1c-0.3,0.6-0.7,1.2-1,1.8c-0.3,0.6-0.7,1.2-1,1.8C-83.8,307.5-84.6,309.1-85.3,310.8z"/>
		</g>
		<g id="path2242">
			<path inkscape:connector-curvature="0" d="M-58,311c2.6-0.6,5.2-1.6,7.1-3.6c0.4-0.4,0.7-0.8,1.1-1.2c1-1.3,2.4-3.9,1.8-5.6
				c-0.1-0.2-0.2-0.4-0.3-0.6c-1.5-1-3.5-0.2-4.7,0.8c-0.4,0.3-0.8,0.7-1.1,1c-1.6,2-2.4,4.7-1.8,7.3c0.1,0.5,0.3,0.9,0.5,1.3
				c1.1,1.9,2.6,3.7,4.9,4c0.4,0.1,0.8,0,1.2,0.1c2.3-0.2,4-1.7,5.6-3.4c1.1-1.1,1.4-2.2,2-3.5c0.2-0.2,0.2-0.4,0.4,0.3
				c0,0-0.4,1-0.4,1.2c0,0.1,0,0.1,0,0.2l0,0c-0.1-0.1-0.2-0.2-0.3-0.3c0,0,0.7-0.9,0.7-1c0.2-0.3,0.6,0,0.4,0.3l0,0
				c-0.1,0.1-1.4,2.1-1.3,0.6c0.1-0.2,0.2-1.1,0.4-1.2c0.2-0.1,0.3,0,0.5,0l0,0c-0.2,0.4-0.3,0.9-0.5,1.3c-0.4,0.9-1,1.6-1.6,2.4
				c-1.6,1.7-3.5,3.4-6,3.6c-0.4,0-0.9,0-1.3-0.1c-2.4-0.5-4.1-2.2-5.2-4.3c-0.2-0.5-0.4-1-0.5-1.4c-0.6-2.8,0.2-5.6,1.9-7.7
				c0.4-0.4,0.8-0.8,1.2-1.1c1.3-0.9,3.2-1.7,4.7-1.1c0.3,0.1,0.5,0.3,0.7,0.5c0.1,0.3,0.3,0.5,0.4,0.8c0.6,1.9-1,4.4-2,6
				c-0.4,0.4-0.7,0.9-1.1,1.3c-2,1.9-4.7,3.2-7.4,3.7C-58.3,311.6-58.3,311.1-58,311L-58,311z"/>
			<path d="M-49.5,316.1c-0.5,0-0.9,0-1.4-0.1c-2.1-0.4-4-1.8-5.3-3.8c-0.5,0.2-1.1,0.3-1.7,0.4l-0.2,0c-0.6,0-1.1-0.4-1.2-1
				c-0.1-0.6,0.3-1.3,0.9-1.5l0.1,0c0.3-0.1,0.7-0.2,1-0.2c0-0.1-0.1-0.2-0.1-0.4c-0.6-3,0.2-6.1,2.1-8.5c0.5-0.5,0.9-0.9,1.3-1.2
				c1-0.7,3.5-2.1,5.7-1.2c0.4,0.1,0.7,0.5,1,0.7l0.2,0.2l0.1,0.2c0,0,0.1,0.1,0.1,0.2c0.1,0.1,0.2,0.3,0.3,0.6
				c0.7,2.3-0.9,5-2.1,6.8l-0.1,0.1c-0.2,0.2-0.3,0.4-0.4,0.5c-0.2,0.2-0.4,0.5-0.6,0.7c-1.1,1.1-2.4,2-3.9,2.6
				c1,1.4,2.1,2.1,3.5,2.4c0.4,0.1,0.6,0,1,0.1c1.8-0.2,3.2-1.4,4.8-3.1c0.7-0.7,1.1-1.4,1.4-2.3c0.1-0.4,0.2-0.9,0.6-1.2l0,0
				c0.4-0.5,0.8-0.5,1.1-0.4c0.2,0,0.4,0.1,0.5,0.3h1.1l-0.4,0.7c0,0,0,0.1,0.1,0.1c0.2,0.4,0.2,0.9-0.1,1.2l-0.1,0.2
				c-0.1,0.2-0.3,0.4-0.5,0.6v2l-0.9-0.9c-0.3,0.5-0.7,1-1.1,1.3c-1.8,1.9-3.8,3.7-6.6,3.9C-49.4,316.1-49.4,316.1-49.5,316.1z
				 M-49.8,300.7c-0.9,0-1.8,0.5-2.5,1c-0.3,0.3-0.7,0.6-1,0.9c-1.5,1.8-2.1,4.2-1.6,6.4c0,0,0,0,0,0c1.3-0.6,2.5-1.3,3.4-2.3
				c0.2-0.2,0.3-0.4,0.5-0.5c0.2-0.2,0.3-0.4,0.5-0.6c1.3-1.8,2-3.6,1.7-4.6l-0.1-0.2C-49.2,300.7-49.5,300.7-49.8,300.7z"/>
		</g>
		<g id="path2244">
			<path inkscape:connector-curvature="0" d="M44.5,275.7c-0.2,0-0.3,0.1-0.4,0.2l0,0c0,0.1,0,0.1,0,0.2c0-0.1,0-0.1,0-0.2
				c-0.1,0.1-0.3,0.2-0.3,0.3c-0.3,0.4-1.3,3.2-1.3,3.2c-1.2,3.1-2.4,6.2-3.6,9.2c-1.1,2-2.2,4-3.6,6c-0.8-0.5-1.6-1.1-2.4-1.5
				c-0.8-0.6-2.2-1.5-3.1-2.1c-0.6-0.4-1.8-1.3-2.6-1c-0.2,0.1-0.2,0.3-0.3,0.5c-0.4,2.9,0.9,5.9,1.3,8.7c0.3,1.3,0.5,2.1,0.9,3.3
				c-1.7,1.8-3.6,3.5-5.7,4.8c-1.8,0.9-2.5,1.3-2.7-1.2c0-1.8,0.2-3.7,0.3-5.5c-0.1-0.2-0.1-0.4-0.2-0.6c-0.8-1.1-2.3,0.9-2.7,1.3
				c-1.5,1.7-2.9,3.8-4.8,5.1c-1.5,0.9-2,0.9-2.2-0.6c0.6-0.8,1.1-1.5,1.6-2.4c0.7-1.1,1.2-2.2,1.7-3.3c0.4-0.8,0.7-1.3,0.8-2.2
				c-0.1-0.2-0.1-0.4-0.2-0.5c-0.7-0.8-1.9-0.2-2.6,0.3c-0.2,0.2-0.4,0.5-0.6,0.7c-1.2,2-1.4,4.4-1.3,6.7c0,0.2,0,0.4,0.1,0.6
				c-1.3,1.6-3.1,2.9-4.9,3.9c-1.6,0.6-3.5,1.3-4.7-0.4c-0.8-1.9-0.9-4-0.7-6.1c0.1-1,0.6-3.3-0.4-4c-0.2-0.1-0.4-0.2-0.6-0.2
				s-0.5,0-0.7,0.1c-0.8,0.2-1.2,0.5-1.7,1c-1.3,1-2.6,2-3.9,3.2c-2.5,2.2-4.9,4.6-7.4,6.9c-0.2,0.2-0.5,0.4-0.7,0.6
				c-0.1,0.1-0.2,0.2-0.3,0.3c0,0.1-0.1,0.3,0,0.2c0-0.8,0.6-1.4,0.9-2.1c1.4-2.8,3-5.6,3.6-8.7c0.2-1.5,0.4-3.9-1.5-4.5
				c-0.3-0.1-0.6-0.1-0.9-0.1c-0.3,0.1-0.6,0.1-1,0.2c-2,0.7-3.1,2.6-4.2,4.2c-1.9,2.5-4,4.8-6.2,7c-0.7,0.7-1.3,1.3-2.1,1.9
				c1.1-1.3,1.8-2.7,2.4-4.2c0.2-0.6,0.4-1.1,0.5-1.6c0.3-1.7,0.2-4-1-5.4c-0.2-0.3-0.6-0.5-0.9-0.7c-0.3-0.1-0.6-0.3-1-0.3
				c-2.3-0.2-3.4,2.4-4.3,4c-1.8,3.2-4,6.3-6.2,9.2c-0.1,0-0.1,0-0.2,0c-0.4,0-1-0.1-1.3,0.2c-0.5,0.4-0.1,0.9,0.4,1.3
				c-0.3,0.3-0.6,0.7-0.7,0.7c-0.6,0.3-0.2-2-0.3-1.7c0.7-4.6,2.2-9,3.6-13.4c1.3-4.3,2.7-8.6,4-12.9l0,0c0.1-0.3-0.4-0.5-0.5-0.1
				c-1.2,4.3-2.6,8.6-4,12.9c-1.4,4.4-2.9,8.9-3.7,13.5c0,0.3-0.3,2,0.5,2.1c0.5,0.1,1-0.3,1.4-0.8c0.1,0,0.1,0.1,0.2,0.1
				c2.2,1.2,4.2,1.4,6.7,0.5c0.5-0.3,0.9-0.5,1.3-0.8c0.6-0.4,1.2-0.8,1.6-1.3c1.4-0.7,2.6-1.8,3.8-3c2.2-2.2,4.3-4.5,6.3-7
				c1.1-1.5,2.1-3.5,4-4c0.3-0.1,0.6-0.1,0.8-0.1c0.3,0,0.5,0,0.8,0.1c1.5,0.6,1.3,2.7,1.1,4c-0.6,3.1-2,5.8-3.5,8.5
				c-0.3,0.4-1.9,3.6,0.1,2.3c0.3-0.2,0.5-0.4,0.8-0.6c2.5-2.3,4.9-4.6,7.4-6.9c1.3-1.1,2.5-2.1,3.9-3.1c0.6-0.5,1-0.8,1.6-1
				c0.2,0,0.4,0,0.6,0c0.1,0.1,0.3,0.1,0.4,0.2c0.6,0.6,0.2,2.8,0.1,3.6c-0.1,2.1,0,4.2,0.8,6.3c1.3,2,3.4,1.3,5.3,0.7
				c1.8-1,3.6-2.2,4.9-3.8c0.2,0.6,0.5,1.2,1.3,1.2c0.6,0,1.2-0.4,1.6-0.7c2-1.4,3.4-3.5,4.9-5.2c0.3-0.3,1.4-1.7,1.9-1.4
				c0.1,0.1,0.1,0.3,0.1,0.5c-0.1,1.8-0.3,3.6-0.3,5.4c0.1,0.9,0.2,2.2,1.3,2.3c0.7,0,1.4-0.4,2-0.7c2-1.3,3.9-3,5.6-4.7
				c0.3,1,0.7,2.5,1.7,2.9c0.2,0.1,0.5,0,0.8,0c0.2-0.2,0.5-0.3,0.7-0.5c0.5-0.6,1.1-1.7,1.3-2.3c1-2.1,1.7-4.3,2.6-6.6
				c0.1-0.2,0.2-0.5,0.3-0.7c2,1.3,4.1,2.3,6.5,2.9c0.7,0.2,1.3,0.3,2,0.4c0.7,0,1.3,0.1,1.9,0c3.7-0.5,5.7-3.5,7.6-6.3
				c0.4-0.6,0.8-1.3,1.2-1.8c-1.3,2.8-2.5,5.8-3,9c-0.1,0.5-0.1,1.1-0.1,1.5c0.1,1-0.1,2.9,1.3,2.9c0.5,0,1.3-0.5,1.7-0.7
				c2.5-1.3,4.8-2.9,7.5-4c0.5-0.1,0.9-0.2,1.3,0c0.6,0.4,0.8,2.2,1,2.9c0.7,2.4,1.6,4.6,3.7,6.3c0.6,0.5,1.2,0.8,1.7,1.2
				c1.7,1,3.6,1.6,5.4,2.1c0.2-0.1,0.4-0.2,0.6-0.4c-1.9-0.5-3.9-1.2-5.7-2.1c-0.6-0.4-1.2-0.7-1.6-1.2c-1.9-1.5-2.9-3.8-3.6-6.1
				c-0.3-1.2-0.4-3.4-2-3.4c-0.3,0-0.6,0.1-0.9,0.1c-2.7,1-5,2.6-7.5,4c-0.4,0.2-1.3,0.9-1.9,0.6c-0.8-0.4-0.5-1.7-0.6-2.3
				c0-0.5,0-1,0.1-1.5c0.5-3.6,1.9-6.8,3.6-10c0.9-1.6,1.1-2,1.9-3.6c0.3-0.5,1.3-1.8,1.3-2.8c0.1-0.1,0.3-0.2,0.2-0.2
				c-0.1,0-0.1,0.1-0.2,0.1c0-0.2-0.1-0.3-0.2-0.4s-0.2,0.2-0.3,0.4c-1.8,3-3.3,6.2-5.3,9c-1.8,2.7-3.8,5.6-7.2,6.1
				c-0.6,0.1-1.3,0-1.8,0c-0.7-0.1-1.3-0.2-1.9-0.4c-2.3-0.6-4.4-1.7-6.5-2.9c0.9-2.2,1.7-4.4,2.5-6.6c1.7-3.4,3.3-6.8,4.5-10.4
				c0.2-0.6,0.6-1.7,0.7-2.4C44.6,276,44.6,275.7,44.5,275.7L44.5,275.7z M44,275.9L44,275.9L44,275.9L44,275.9L44,275.9z
				 M43.7,277.3c-0.1,0.3-0.2,0.7-0.3,1c-0.7,1.8-1.4,3.7-2.2,5.5c0.6-1.3,1.1-2.8,1.6-4.1c0.3-0.7,0.5-1.3,0.8-1.9
				C43.6,277.6,43.7,277.4,43.7,277.3L43.7,277.3z M37.7,291.8c-0.5,1.2-0.9,2.3-1.3,3.6c-0.2-0.1-0.4-0.3-0.6-0.4
				C36.4,293.9,37,292.8,37.7,291.8L37.7,291.8z M27.7,290.3c0.1,0,0.1,0.1,0.2,0.1c0.2,0.1,0.5,0.2,0.7,0.3c1.4,0.8,2.7,1.8,4,2.7
				c0.8,0.5,1.5,1.1,2.4,1.5c-0.2,0.3-0.4,0.6-0.6,0.8c-0.7,1-1.4,2-2.1,3c-0.9,1.2-1.8,2.3-2.9,3.4c-0.3-1.1-0.5-1.9-0.8-3.1
				c-0.4-2.6-1.7-5.9-1.3-8.5C27.5,290.5,27.5,290.4,27.7,290.3L27.7,290.3L27.7,290.3z M35.4,295.3c0.2,0.2,0.5,0.3,0.7,0.5
				c-0.1,0.3-0.2,0.5-0.3,0.8c-0.9,2.2-1.6,4.4-2.6,6.5c-0.3,0.6-0.9,1.7-1.3,2.2c-0.2,0.2-0.4,0.3-0.6,0.4c-0.1,0-0.3,0-0.4-0.1
				c-0.8-0.6-1.2-2-1.3-2.8c1.1-1.2,2.1-2.3,3.1-3.6c0.8-1,1.4-2,2.2-3C35,295.8,35.2,295.5,35.4,295.3L35.4,295.3z M14.4,297.8
				c0.2,0.1,0.3,0.2,0.4,0.4c-0.1,0.8-0.4,1.3-0.8,2c-0.6,1.1-1.1,2.2-1.7,3.3c-0.4,0.7-0.9,1.3-1.3,1.9v-0.1
				c-0.1-2.1,0.1-4.4,1.3-6.4c0.2-0.2,0.3-0.4,0.5-0.6C13.1,298.1,13.8,297.6,14.4,297.8L14.4,297.8z M-26.6,297.4
				c0.2,0.1,0.4,0.2,0.6,0.2c0.2,0.2,0.5,0.4,0.7,0.6c1.1,1.3,1.1,3.4,0.8,5c-0.1,0.6-0.3,1.1-0.5,1.5c-0.8,2-1.9,3.9-3.5,5.3
				c-0.7,0.4-1.4,0.6-2.2,0.7c-2,0.1-4-0.3-6.1-0.6c2.1-3,4.1-6,6.1-9.2c0.9-1.3,1.9-4,4-3.8C-26.7,297.4-26.7,297.4-26.6,297.4
				L-26.6,297.4z M-29.7,311.1c-0.2,0.1-0.3,0.2-0.5,0.3c-0.4,0.3-0.9,0.5-1.3,0.7c-2.2,1-4.1,0.7-6.3-0.5l-0.1-0.1
				c0.2-0.3,0.4-0.6,0.6-0.8l0.1-0.1c2.1,0.3,4.2,0.7,6.4,0.6C-30.4,311.2-30.1,311.2-29.7,311.1L-29.7,311.1z M-37.7,310.6
				c-0.1,0.1-0.3,0.4-0.5,0.7c-0.3-0.2-0.5-0.4-0.4-0.6C-38.7,310.6-38.1,310.6-37.7,310.6L-37.7,310.6z"/>
			<path d="M-33.1,314.9l1.1-1.3c-2,0.5-3.9,0.3-5.9-0.7c-0.5,0.4-1.1,0.7-1.8,0.6c-1.5-0.2-1.3-2.2-1.3-2.9l0-0.3
				c0.8-4.7,2.3-9.2,3.7-13.6c0.4-1.2,0.8-2.5,1.2-3.7c1-3,1.9-6.1,2.8-9.2c0.1-0.4,0.4-0.8,0.9-0.9c0.4-0.1,0.9,0,1.2,0.4
				c0.3,0.3,0.4,0.8,0.3,1.2c-1,3.5-2.1,7-3.2,10.4l-0.8,2.5c-0.3,0.8-0.5,1.7-0.8,2.5c-0.9,3-1.9,6.1-2.5,9.2c0.2,0,0.3,0,0.4,0
				c2.4-3.3,4.2-6,5.8-8.8c0.2-0.3,0.3-0.5,0.5-0.8c0.9-1.5,2.2-3.9,4.8-3.7c0.4,0,0.7,0.1,1,0.3c0.1,0,0.1,0.1,0.2,0.1l0.2,0.1
				l0.2,0.1c0.3,0.2,0.7,0.4,1,0.8c1.6,2,1.3,4.9,1.1,6.1c0,0.3-0.1,0.5-0.2,0.7c1.3-1.4,2.6-2.9,3.8-4.6c0.1-0.2,0.3-0.4,0.4-0.7
				c1-1.5,2.2-3.2,4.3-3.9c0.3-0.1,0.5-0.1,0.6-0.1c0.1,0,0.2,0,0.3-0.1l0.1,0h0.2c0.3,0,0.7,0,1.2,0.1c2.8,1,2.4,4.2,2.2,5.6
				c-0.4,2.2-1.3,4.3-2.3,6.2c0,0,0.1-0.1,0.1-0.1c1.5-1.4,3-2.8,4.5-4.2c1.4-1.3,2.7-2.3,3.9-3.2c0.6-0.5,1.1-0.9,2-1.1
				c0.4-0.1,0.8-0.1,1-0.1c0.4,0,0.8,0.2,1,0.3l0.2,0.1c1.2,1,1,3.1,0.8,4.4c0,0.2,0,0.3-0.1,0.5c-0.2,2.2,0,4,0.6,5.5
				c0.7,0.9,1.5,0.7,3.3,0l0.2-0.1c1.7-0.9,3.2-2,4.3-3.2c0-0.1,0-0.2,0-0.3c-0.1-2.9,0.4-5.3,1.5-7.2l0.2-0.2
				c0.1-0.1,0.1-0.2,0.2-0.3c0.1-0.1,0.2-0.3,0.4-0.4l0.1-0.1c1.5-1.1,3-1.1,3.9-0.1c0.2,0.2,0.3,0.5,0.3,0.6l0.1,0.3l0,0.4
				c-0.1,1-0.5,1.7-0.9,2.5c-0.2,0.4-0.4,0.8-0.6,1.2c-0.3,0.7-0.7,1.4-1.2,2.1l-0.4,0.6c-0.3,0.4-0.6,0.9-0.9,1.3
				c0.1-0.1,0.3-0.2,0.6-0.3c1.2-0.9,2.2-2.1,3.3-3.4c0.4-0.5,0.8-1,1.3-1.5l0.2-0.2c0.8-0.8,1.7-1.7,2.8-1.7c0.5,0,0.9,0.3,1.3,0.7
				l0.1,0.1c0.1,0.2,0.1,0.4,0.2,0.5c0,0,0,0.1,0,0.1l0.1,0.2l0,0.3c0,0.6-0.1,1.2-0.1,1.8c-0.1,1.2-0.2,2.4-0.2,3.6
				c0,0.4,0.1,0.7,0.1,0.8c0.3-0.1,0.7-0.3,1.1-0.5l0.1,0c1.7-1.1,3.3-2.4,5.1-4.2c-0.3-0.9-0.4-1.6-0.7-2.6l-0.1-0.2
				c-0.1-1-0.4-1.9-0.6-2.9c-0.5-2-1-4-0.7-6.1l0-0.2l0.1-0.1c0.1-0.2,0.2-0.7,0.7-0.9c1.2-0.6,2.6,0.3,3.4,0.9l0.2,0.1
				c0.9,0.6,2.3,1.6,3.1,2.1c0.3,0.2,0.7,0.5,1.2,0.7c0.1,0.1,0.3,0.2,0.4,0.3c1-1.4,1.9-3.1,3-5.1c0.6-1.5,1.2-3.1,1.8-4.6
				c0.6-1.5,1.2-3.1,1.8-4.6l0.3-0.6c0.1-0.2,0.2-0.4,0.2-0.6c0.4-1.1,0.7-1.7,0.8-2c0.1-0.3,0.4-0.5,0.5-0.5l0,0l1.3-3.8v1.5
				l2.2-6.1l-1.3,9.1c-0.1,0.7-0.4,1.6-0.7,2.6c-1.2,3.4-2.7,6.9-4.6,10.5c-0.7,1.9-1.4,3.9-2.2,5.8c1.8,1,3.6,1.9,5.5,2.4
				c0.5,0.2,1.1,0.3,1.8,0.4c0.2,0,0.4,0,0.6,0c0.4,0,0.7,0,1,0c3-0.4,4.8-3,6.5-5.6l0.1-0.1c1.2-1.7,2.2-3.5,3.3-5.4
				c0.6-1.2,1.3-2.4,2-3.5l0,0c0.1-0.3,0.3-0.7,0.9-0.8l0.5-0.1l0.4,0.4c0,0,0,0,0,0h0.4l0.2,0.7c0.1,0.2,0.1,0.6-0.2,0.9
				c-0.1,1-0.8,1.9-1.2,2.6c-0.1,0.1-0.1,0.2-0.2,0.3c-0.7,1.2-1,1.7-1.5,2.8l-0.4,0.7c-1.5,2.9-3,6.1-3.5,9.7
				c-0.1,0.5-0.1,0.9-0.1,1.3c0,0.2,0,0.4,0,0.7c0,0.2,0,0.6,0,0.8c0.2-0.1,0.6-0.3,0.8-0.4c0.1-0.1,0.2-0.1,0.3-0.2
				c0.7-0.4,1.5-0.8,2.2-1.3c1.7-1,3.4-2,5.4-2.7l0.2-0.1h0.2c0.1,0,0.2,0,0.3,0c0.2,0,0.4-0.1,0.6-0.1c2.2,0,2.6,2.3,2.8,3.5
				c0,0.2,0.1,0.4,0.1,0.6c0.5,1.8,1.4,4.1,3.2,5.6l0.1,0.1c0.3,0.3,0.6,0.5,1,0.7c0.2,0.1,0.3,0.2,0.5,0.3c1.6,0.8,3.4,1.5,5.4,2
				l1.7,0.4l-1.2,1.2c-0.3,0.3-0.6,0.5-0.8,0.6l-0.3,0.2l-0.4-0.1c-2.1-0.6-3.9-1.3-5.6-2.2c-0.2-0.2-0.4-0.3-0.6-0.4
				c-0.4-0.3-0.8-0.5-1.3-0.9c-2.4-1.9-3.4-4.6-4-6.7c-0.1-0.2-0.1-0.5-0.2-0.8c-0.1-0.4-0.2-1.2-0.4-1.5c-0.1,0-0.3,0-0.4,0.1
				c-1.7,0.7-3.4,1.6-5.1,2.6c-0.7,0.4-1.5,0.9-2.3,1.3l-0.2,0.1c-0.7,0.4-1.4,0.7-2,0.7c-2.1,0-2.2-2.3-2.3-3.3c0-0.2,0-0.3,0-0.5
				c0-0.6,0-1.3,0.1-1.8c0.1-0.8,0.3-1.6,0.5-2.5c-1.4,1.4-3,2.5-5.2,2.7c-0.5,0.1-1,0.1-1.4,0c-0.2,0-0.4,0-0.6,0l-0.1,0
				c-0.7-0.1-1.4-0.2-2.2-0.4c-1.8-0.5-3.7-1.2-5.7-2.4c-0.2,0.5-0.4,1-0.6,1.6c-0.6,1.5-1.2,3.1-1.9,4.6c-0.3,0.7-0.9,1.9-1.5,2.5
				c-0.2,0.2-0.4,0.4-0.6,0.4c-0.1,0-0.1,0.1-0.2,0.1l-0.3,0.2l-0.4,0c-0.1,0-0.1,0-0.2,0c-0.2,0-0.6,0.1-1-0.1
				c-0.9-0.4-1.4-1.2-1.8-2c-1.6,1.6-3.1,2.8-4.6,3.8l-0.1,0.1c-0.7,0.3-1.6,0.8-2.5,0.8c-2-0.2-2.2-2.2-2.3-3.1l0-0.2
				c0-1.2,0.1-2.4,0.2-3.6c0-0.2,0-0.3,0-0.5c0,0,0,0-0.1,0.1c-0.1,0.1-0.2,0.2-0.2,0.3c-0.4,0.4-0.8,0.9-1.2,1.4
				c-1.1,1.4-2.3,2.8-3.9,3.9l-0.2,0.1c-0.5,0.3-1.2,0.7-2,0.7c-0.6,0-1-0.2-1.4-0.5c-1.2,1.1-2.6,2.2-4.3,3L6.3,311L6,311.1
				c-1.8,0.6-4.4,1.3-6-1.2l-0.1-0.2c-0.9-2.4-0.9-4.8-0.8-6.7l0-0.4c0.2-1.4,0.2-2.1,0.1-2.4H-1c-0.4,0.1-0.7,0.3-1.2,0.7
				c-1.4,1-2.6,2.1-3.8,3.1c-1.2,1.1-2.4,2.3-3.7,3.4c-1.2,1.2-2.5,2.3-3.7,3.5l-0.1,0.1c-0.1,0.1-0.2,0.2-0.3,0.2
				c-0.1,0.1-0.3,0.2-0.5,0.3c-0.3,0.2-0.6,0.3-0.8,0.4l-0.1,0.1l-0.1-0.1c-0.5,0.1-0.9-0.1-1.1-0.4c-0.9-1,0.4-3.2,0.7-3.7
				c1.4-2.7,2.8-5.3,3.4-8.2c0.2-1.2,0.3-2.6-0.5-2.9c-0.1,0-0.2,0-0.4,0c-0.1,0-0.3,0-0.5,0c-1.4,0.4-2.3,1.8-3.1,3.1
				c-0.1,0.2-0.3,0.4-0.4,0.6c-1.8,2.3-3.9,4.7-6.4,7.2c-0.3,0.3-0.6,0.6-0.9,0.9l3.1-0.8l-6.2,3.1c-0.5,0.4-1,0.8-1.6,1.1
				c-0.3,0.2-0.5,0.3-0.7,0.4c-0.2,0.1-0.4,0.2-0.6,0.4l-0.1,0.1c0,0-0.1,0-0.1,0L-33.1,314.9z M-35.2,309.4
				c1.5,0.2,2.9,0.4,4.3,0.3c0.6-0.1,1.2-0.2,1.7-0.5c1.3-1.3,2.4-2.9,3.1-4.9c0.2-0.5,0.4-0.9,0.4-1.4c0.2-1.1,0.4-3-0.5-4.2
				c-0.1-0.1-0.1-0.1-0.2-0.2c-0.1,0-0.1-0.1-0.2-0.1c-0.2,0-0.3-0.1-0.5-0.2c-0.1,0-0.2-0.1-0.3-0.1c-0.8,0.2-1.5,1.2-2.2,2.5
				c-0.2,0.3-0.3,0.6-0.5,0.8C-31.5,304-33.1,306.5-35.2,309.4z M30.6,303c0.2,0.7,0.4,1.2,0.6,1.5c0.4-0.4,0.9-1.5,1.1-1.9
				c0.5-1,0.9-2.1,1.4-3.3c-0.1,0.1-0.2,0.3-0.3,0.4C32.5,300.9,31.5,302,30.6,303z M13,299.6c-0.4,0.7-0.7,1.4-0.8,2.3
				c0.1-0.3,0.3-0.5,0.4-0.8c0.2-0.4,0.4-0.8,0.6-1.3c0.2-0.3,0.3-0.6,0.4-0.8c-0.1,0.1-0.2,0.1-0.2,0.2l0,0c0,0-0.1,0.1-0.1,0.1
				C13.1,299.4,13,299.5,13,299.6z M28.3,291.6c0,1.4,0.4,2.9,0.7,4.4c0.2,1,0.5,1.9,0.6,2.8l0.3,1c0,0.1,0,0.2,0.1,0.2
				c0.5-0.6,1.1-1.3,1.6-2c0.3-0.5,0.7-1,1-1.5c0.3-0.5,0.7-1,1-1.4c-0.2-0.1-0.5-0.3-0.7-0.4c-0.3-0.2-0.6-0.4-0.8-0.6
				c-0.5-0.3-1-0.7-1.6-1.1C29.8,292.6,29,292.1,28.3,291.6z"/>
		</g>
	</g>
	<g>
		<circle cx="-218.3" cy="304.4" r="0.7"/>
		<path d="M-218.3,306c-0.9,0-1.6-0.7-1.6-1.6c0-0.9,0.7-1.6,1.6-1.6c0.9,0,1.6,0.7,1.6,1.6C-216.6,305.3-217.4,306-218.3,306z
			 M-218.3,304.1c-0.2,0-0.3,0.1-0.3,0.3c0,0.2,0.1,0.3,0.3,0.3c0.2,0,0.3-0.1,0.3-0.3C-218,304.2-218.1,304.1-218.3,304.1z"/>
	</g>
</g>
<g>
	<path d="M-222,373.3c1.8,1.5,2.6,3.5,2.6,6.1s-0.9,4.6-2.6,6.1c-1.8,1.5-4.2,2.2-7.3,2.2h-5.9v7.2h-3.4v-23.7h9.3
		C-226.2,371.1-223.8,371.8-222,373.3z M-224.5,383.3c1.1-0.9,1.7-2.2,1.7-3.9c0-1.7-0.6-3-1.7-3.9c-1.1-0.9-2.8-1.4-4.9-1.4h-5.8
		v10.6h5.8C-227.2,384.7-225.6,384.2-224.5,383.3z"/>
	<path d="M-209.6,377.5c1.1-0.5,2.5-0.8,4-0.8v3.2c-0.2,0-0.4,0-0.7,0c-1.8,0-3.1,0.5-4.2,1.6s-1.5,2.5-1.5,4.5v8.9h-3.3v-18h3.1v3
		C-211.5,378.8-210.7,378-209.6,377.5z"/>
	<path d="M-201.5,372.8c-0.4-0.4-0.6-0.9-0.6-1.5s0.2-1.1,0.6-1.5c0.4-0.4,0.9-0.6,1.6-0.6c0.6,0,1.2,0.2,1.6,0.6
		c0.4,0.4,0.6,0.9,0.6,1.5s-0.2,1.1-0.6,1.5c-0.4,0.4-0.9,0.6-1.6,0.6C-200.5,373.4-201.1,373.2-201.5,372.8z M-201.5,376.8h3.3v18
		h-3.3V376.8z"/>
	<path d="M-182,393.7c-0.5,0.4-1.1,0.7-1.8,0.9c-0.7,0.2-1.4,0.3-2.2,0.3c-1.8,0-3.2-0.5-4.2-1.5s-1.5-2.4-1.5-4.2v-9.9h-3.1v-2.7
		h3.1v-3.9h3.3v3.9h5.2v2.7h-5.2v9.7c0,1,0.2,1.7,0.7,2.2s1.2,0.8,2.1,0.8c1,0,1.8-0.3,2.5-0.8L-182,393.7z"/>
	<path d="M-165.8,378.5c1.3,1.2,2,3,2,5.5v10.8h-3.1v-2.4c-0.5,0.8-1.3,1.5-2.3,1.9s-2.2,0.7-3.6,0.7c-2,0-3.6-0.5-4.8-1.5
		s-1.8-2.2-1.8-3.8c0-1.6,0.6-2.9,1.7-3.8c1.2-1,3-1.4,5.5-1.4h5.2v-0.6c0-1.4-0.4-2.5-1.2-3.2s-2-1.1-3.6-1.1
		c-1.1,0-2.1,0.2-3.1,0.5c-1,0.4-1.9,0.8-2.6,1.4l-1.4-2.4c0.9-0.7,2-1.3,3.3-1.7c1.3-0.4,2.7-0.6,4.1-0.6
		C-169,376.7-167.1,377.3-165.8,378.5z M-169,391.7c0.9-0.6,1.6-1.3,2-2.4v-2.5h-5c-2.8,0-4.1,0.9-4.1,2.8c0,0.9,0.4,1.6,1.1,2.1
		c0.7,0.5,1.7,0.8,2.9,0.8S-169.9,392.2-169,391.7z"/>
	<path d="M-129.9,378.6c1.3,1.3,2,3.3,2,5.8v10.3h-3.3v-10c0-1.7-0.4-3-1.2-3.9s-1.9-1.3-3.4-1.3c-1.6,0-3,0.5-3.9,1.5
		c-1,1-1.5,2.5-1.5,4.4v9.3h-3.3v-10c0-1.7-0.4-3-1.2-3.9s-1.9-1.3-3.4-1.3c-1.6,0-3,0.5-3.9,1.5c-1,1-1.5,2.5-1.5,4.4v9.3h-3.3v-18
		h3.1v2.7c0.7-0.9,1.5-1.6,2.6-2.1s2.3-0.7,3.6-0.7c1.4,0,2.6,0.3,3.7,0.8c1.1,0.6,1.9,1.4,2.5,2.5c0.7-1,1.6-1.9,2.8-2.4
		c1.2-0.6,2.6-0.9,4.1-0.9C-133,376.7-131.3,377.3-129.9,378.6z"/>
	<path d="M-112.4,371.1h10c2.5,0,4.7,0.5,6.7,1.5s3.5,2.4,4.5,4.2c1.1,1.8,1.6,3.9,1.6,6.2s-0.5,4.4-1.6,6.2
		c-1.1,1.8-2.6,3.2-4.5,4.2c-1.9,1-4.2,1.5-6.7,1.5h-10V371.1z M-102.6,391.8c1.9,0,3.6-0.4,5.1-1.1s2.6-1.8,3.4-3.1
		c0.8-1.3,1.2-2.9,1.2-4.7s-0.4-3.3-1.2-4.7c-0.8-1.3-1.9-2.4-3.4-3.1s-3.1-1.1-5.1-1.1h-6.4v17.8L-102.6,391.8L-102.6,391.8z"/>
	<path d="M-68.7,386.9h-14.6c0.2,1.6,0.9,2.9,2.1,3.8c1.2,1,2.7,1.4,4.4,1.4c2.1,0,3.9-0.7,5.2-2.2l1.8,2.1c-0.8,0.9-1.8,1.7-3,2.2
		s-2.6,0.7-4,0.7c-1.9,0-3.6-0.4-5-1.2c-1.5-0.8-2.6-1.9-3.4-3.3s-1.2-3-1.2-4.7s0.4-3.3,1.2-4.7c0.8-1.4,1.9-2.5,3.2-3.3
		c1.3-0.8,2.9-1.2,4.6-1.2s3.2,0.4,4.6,1.2c1.3,0.8,2.4,1.9,3.2,3.3c0.8,1.4,1.1,3,1.1,4.8C-68.6,386.2-68.6,386.5-68.7,386.9z
		 M-81.4,380.8c-1.1,0.9-1.7,2.2-1.8,3.7h11.5c-0.2-1.5-0.8-2.8-1.8-3.7c-1-1-2.4-1.4-3.9-1.4C-79,379.4-80.4,379.9-81.4,380.8z"/>
	<path d="M-49.9,377.8c1.4,0.8,2.5,1.8,3.2,3.2s1.2,3,1.2,4.8s-0.4,3.4-1.2,4.8s-1.9,2.5-3.2,3.2c-1.4,0.8-2.9,1.2-4.7,1.2
		c-1.3,0-2.6-0.3-3.7-0.8c-1.1-0.5-2-1.3-2.7-2.3v2.8h-3.1v-25.1h3.3v9.9c0.7-0.9,1.6-1.7,2.7-2.2c1.1-0.5,2.3-0.7,3.6-0.7
		C-52.8,376.7-51.3,377.1-49.9,377.8z M-51.8,391.4c0.9-0.5,1.6-1.3,2.2-2.2c0.5-1,0.8-2.1,0.8-3.3s-0.3-2.3-0.8-3.3
		s-1.3-1.7-2.2-2.2s-1.9-0.8-3.1-0.8c-1.1,0-2.2,0.3-3.1,0.8c-0.9,0.5-1.6,1.3-2.2,2.2c-0.5,1-0.8,2.1-0.8,3.3s0.3,2.3,0.8,3.3
		s1.2,1.7,2.2,2.2s2,0.8,3.1,0.8C-53.7,392.2-52.7,391.9-51.8,391.4z"/>
	<path d="M-26,378.6c1.3,1.3,2,3.3,2,5.8v10.3h-3.3v-10c0-1.7-0.4-3-1.3-3.9c-0.8-0.9-2-1.3-3.6-1.3c-1.8,0-3.2,0.5-4.2,1.5
		s-1.5,2.5-1.5,4.4v9.3H-41v-18h3.1v2.7c0.7-0.9,1.5-1.6,2.7-2.1c1.1-0.5,2.4-0.7,3.8-0.7C-29.1,376.7-27.3,377.3-26,378.6z"/>
	<path d="M-5.7,378.5c1.3,1.2,2,3,2,5.5v10.8h-3.1v-2.4c-0.5,0.8-1.3,1.5-2.3,1.9s-2.2,0.7-3.6,0.7c-2,0-3.6-0.5-4.8-1.5
		s-1.8-2.2-1.8-3.8c0-1.6,0.6-2.9,1.7-3.8c1.2-1,3-1.4,5.5-1.4h5.2v-0.6c0-1.4-0.4-2.5-1.2-3.2s-2-1.1-3.6-1.1
		c-1.1,0-2.1,0.2-3.1,0.5c-1,0.4-1.9,0.8-2.6,1.4l-1.4-2.4c0.9-0.7,2-1.3,3.3-1.7c1.3-0.4,2.7-0.6,4.1-0.6
		C-8.9,376.7-7,377.3-5.7,378.5z M-8.9,391.7c0.9-0.6,1.6-1.3,2-2.4v-2.5h-5c-2.8,0-4.1,0.9-4.1,2.8c0,0.9,0.3,1.6,1,2.1
		s1.7,0.8,2.9,0.8S-9.8,392.2-8.9,391.7z"/>
	<path d="M12.5,393.7c-0.5,0.4-1.1,0.7-1.8,0.9c-0.7,0.2-1.4,0.3-2.2,0.3c-1.8,0-3.2-0.5-4.2-1.5s-1.5-2.4-1.5-4.2v-9.9h-3v-2.7h3
		v-3.9h3.3v3.9h5.2v2.7H6.1v9.7c0,1,0.2,1.7,0.7,2.2S8,392,8.9,392c1,0,1.8-0.3,2.5-0.8L12.5,393.7z"/>
	<path d="M31.4,378.6c1.3,1.3,2,3.3,2,5.8v10.3h-3.3v-10c0-1.7-0.4-3-1.3-3.9c-0.8-0.9-2-1.3-3.6-1.3c-1.8,0-3.2,0.5-4.2,1.5
		c-1,1-1.5,2.5-1.5,4.4v9.3h-3.3v-25.1h3.3v9.7c0.7-0.9,1.6-1.5,2.7-2s2.3-0.7,3.7-0.7C28.3,376.7,30.1,377.3,31.4,378.6z"/>
</g>
</svg>
