<?xml version="1.0" encoding="utf-8"?>
<!-- Generator: Adobe Illustrator 19.0.0, SVG Export Plug-In . SVG Version: 6.00 Build 0)  -->
<svg version="1.1"
	 id="svg8" xmlns:inkscape="http://www.inkscape.org/namespaces/inkscape" xmlns:svg="http://www.w3.org/2000/svg" xmlns:dc="http://purl.org/dc/elements/1.1/" xmlns:cc="http://creativecommons.org/ns#" xmlns:rdf="http://www.w3.org/1999/02/22-rdf-syntax-ns#" xmlns:sodipodi="http://sodipodi.sourceforge.net/DTD/sodipodi-0.dtd" inkscape:version="0.92.4 (5da689c313, 2019-01-14)" sodipodi:docname="MySignature.svg"
	 xmlns="http://www.w3.org/2000/svg" xmlns:xlink="http://www.w3.org/1999/xlink" x="0px" y="0px" viewBox="-291 165.4 376.9 230.6"
	 style="enable-background:new -291 165.4 376.9 230.6;" xml:space="preserve">
<sodipodi:namedview  borderopacity="1.0" pagecolor="#ffffff" id="base" inkscape:cx="478.98712" bordercolor="#666666" inkscape:cy="406.45061" showgrid="false" inkscape:zoom="0.57769471" inkscape:document-units="mm" inkscape:current-layer="layer1" inkscape:window-width="1920" inkscape:window-x="-8" inkscape:window-height="1028" inkscape:pageopacity="0.0" inkscape:window-y="-8" inkscape:window-maximized="1" inkscape:pageshadow="2">
	</sodipodi:namedview>
<g>
	<path d="M-174.4,259c0.5,0,0.9-0.2,1.2-0.5c0.3-0.4,0.3-0.9,0.1-1.3c-0.2-0.4-0.6-0.6-1.1-0.6c0,0,0,0,0,0
		c-12.3-0.8-25.4,0-38.9,2.6c-0.1-0.3-0.4-0.5-0.7-0.6c-0.6-0.2-1.2,0-1.5,0.6c-0.1,0.2-0.2,0.3-0.3,0.4c0,0.1-0.1,0.1-0.1,0.2
		c-5.7,1.1-11.6,2.6-17.7,4.4c-15.7,4.9-33.4,10.5-48.4,20.3c-0.7,0.5-0.7,1.3-0.4,1.8c0.3,0.5,1.1,0.8,1.7,0.3
		c14.5-9.4,31.3-14.7,47.6-19.9l0.3-0.1c5.4-1.6,10.9-2.9,15.2-3.8c-5.9,10.2-11.2,20.6-16.1,30.4c-3.6,7.4-7,15.3-10.3,23.9
		c-0.2,0.5-0.1,0.9,0.2,1.3c0.3,0.3,0.6,0.5,1,0.5c0.1,0,0.2,0,0.2,0c0.4-0.1,0.8-0.4,0.9-0.8c3.4-8.8,6.8-16.6,10.3-23.7
		c5.2-10.4,10.9-21.5,17.2-32.3C-200.5,259.2-187.1,258.2-174.4,259z"/>
	<path d="M-213.1,282.7c-0.5,0-0.9,0.4-1.1,0.8l0,0c-1.8,5.5-3.7,11-5.7,16.3c-0.6,1.6-1.2,3.2-1.7,4.8l-0.2,0.7
		c-0.7,1.9-0.7,1.9-0.9,2.7c-0.1,0.4-0.3,0.9-0.6,1.9c-0.1,0.5,0,0.8,0.1,1.1c0.2,0.3,0.4,0.5,0.8,0.6c0.1,0,0.2,0,0.3,0
		c0.2,0,0.4-0.1,0.6-0.2c0.2-0.1,0.5-0.4,0.6-0.8c0.3-1,0.5-1.5,0.6-1.9c0.2-0.8,0.2-0.8,0.9-2.6l0.2-0.7c0.9-2.6,1.8-5.2,2.7-7.9
		c1.5-4.3,3.1-8.8,4.5-13.2c0.2-0.3,0.2-0.7,0-1C-212.1,282.9-212.6,282.7-213.1,282.7z"/>
	<path d="M-130.7,284c-0.1-0.3-0.2-0.5-0.3-0.8l-0.1-0.1c-0.2-0.3-0.4-0.6-0.6-0.9c-0.4-0.6-0.8-1.3-1.3-1.8
		c-3.3-4-8.4-6.8-14.5-7.7l-0.1,0l-0.1,0c-0.3,0-0.7,0-1,0.1c-0.5,0-1.1,0-1.6,0.2c-4.4,1.1-6.4,5.7-7.8,9.1l-0.3,0.7
		c-1.3,3.2-2.7,6.5-5.6,8.1c-1.8,0.5-2.9-0.9-4.4-3.1c-0.4-0.6-0.8-1.2-1.2-1.7c-1.3-1.3-2.4-2-3.5-2c-1.6,0-2.9,1.2-4.4,2.7
		c-0.3,0.3-0.6,0.6-1,0.9c-2.2,1.6-3.9,2.9-4.7,3.5c0-3.6,2.4-6.4,5-9.1l0.6-0.5c0.8-0.7,1.5-1.3,2.3-1.9c1.9-0.4,3.8-0.8,5.8-1.4
		l0.6-0.2l-0.4-0.6c-0.1-0.1-0.1-0.2-0.2-0.3c-0.1-0.2-0.2-0.4-0.3-0.6l0.8-0.8h-1.2c-0.1,0-0.2,0-0.2,0l-0.2-0.2
		c-0.6-0.3-1.2-0.2-1.6,0c-0.1,0-0.2,0.1-0.3,0.1c-1.3,0.3-2.6,0.8-3.7,1.5c-1.8,0.4-3.7,0.8-5.8,1.3c-5.8,1.3-11.4,2.5-16.5,3.4
		c0.5-3.5,1.2-6.7,2.1-9.8c0.2-0.5,0.1-0.9-0.2-1.3c-0.3-0.4-0.8-0.6-1.2-0.5c-0.5,0.1-0.8,0.4-1,0.9c-1,4-1.8,7.6-2.3,11.1
		c-0.9,0.1-1.7,0.3-2.6,0.4c-1,0.2-1.9,0.3-3,0.5c-0.9,0.2-1.2,0.9-1.1,1.5c0.1,0.3,0.2,0.6,0.5,0.8c0.2,0.1,0.5,0.3,1,0.2l4.7-0.8
		c-0.3,2.3-0.4,4.6-0.5,6.8l0,0.1c0.2,5.3,0.3,9.1,6.4,10.6l1.1,0c0.8,0,0.9,0,1.5-0.2c0.3-0.1,0.6-0.1,1.2-0.3
		c0.5-0.1,0.9-0.4,1-0.8c0.1-0.4,0-1-0.3-1.3c-0.3-0.4-0.8-0.5-1.3-0.3l-0.6,0.2c-0.7,0.2-0.7,0.2-1,0.2c-0.2,0-0.5,0-1.1,0
		c-4.2-0.9-4.2-3.8-4.3-7.9l0-0.2c0.1-2.5,0.4-5,0.7-7.4c6.2-1.2,12-2.3,17.5-3.5c0.3-0.1,0.7-0.1,1-0.2c-2.5,2.5-5.1,6-5.2,10.6
		l0,0.1l0,0.1c0.3,1.1,0.9,1.7,1.7,2c2,0.6,5-1.9,6.7-3.4c0.2-0.2,0.4-0.3,0.5-0.4c0.4-0.3,0.8-0.7,1.3-1.2c1-1,2.1-2.2,3.1-1.8
		c0.2,0.1,0.8,0.8,0.9,1l0.1,0.1c0.4,0.5,0.9,1.1,1.3,1.7c1.3,1.8,2.7,3.8,5.1,4c0.7,0,1.2-0.1,1.7-0.2l0.1,0c4-1.8,5.7-5.9,7.2-9.5
		l0.4-1.1c1.2-3,2.8-6.7,6.1-7.4c0.7-0.1,1.3-0.1,1.9-0.1c6.7,1.2,10.8,3.9,14.2,9.2c2.8,7.6-3.6,13.1-8.7,17.4
		c-5.1,3.9-10.8,6.6-17.7,9.4c-0.5,0.2-0.8,0.5-0.8,1c-0.1,0.4,0.1,0.9,0.5,1.2c0.2,0.2,0.5,0.3,0.8,0.3c0.2,0,0.4,0,0.5-0.1
		c7.7-3.1,13.4-6.2,18.3-9.8l0.2-0.2c5-4.3,11.3-9.7,10.1-17.2C-130.2,285.6-130.4,284.8-130.7,284z"/>
	<path d="M13.6,287.6L13.6,287.6c-2.1,0-3-2.5-3.7-4.2l-0.1-0.5c-0.5-1.9-1.1-4.5-2.6-4.8c-0.9-0.2-1.8,0.5-2.8,2
		c-0.5,0.7-0.9,1.5-1.4,2.2c-2.5,4-5,8.2-8.7,11.2c-2.2,1.5-3.7,2.1-4.9,1.7c-1-0.3-1.9-1.3-2.6-3c-1-3.3-1.6-6.8-1.8-10.2
		c0.3-2.4,0.6-4.8,0.8-7.2c0.2-2.3,0.3-3.9,0.4-5.9c0-0.1,0-0.2,0.1-0.3c0.1-0.4,0.3-1.1-0.3-1.4l-0.1,0c-0.5-0.1-0.9-0.1-1.2,0
		c-0.2-0.1-0.7-0.1-0.9,0.2c-0.1,0.2-0.1,0.4-0.1,0.6c-0.7,1.2-0.8,3-0.8,4.1c0,0.3,0,0.5,0,0.7c-0.4,3-0.5,6.1-0.3,9
		c-0.8,6.5-2.2,11.2-4.4,15.4l-0.2,0.3c-1.9,3.1-4.4,7.2-8.2,6.5c-3.2-2.6-3.5-7.2-3.8-11.3c0-0.6-0.1-1.2-0.1-1.7
		c0.1-5.4,0.3-11.8,0.9-18c1.2-5.2,1-5.9,0.6-6.3c-0.2-0.2-0.4-0.2-0.6-0.2c-0.8,0.1-1.3,0.3-1.6,0.6c-0.2,0.1-0.3,0.3-0.3,0.5
		c-0.1,0.4-0.2,0.8-0.2,1.3c0,0.2,0,0.4-0.1,0.6l-0.3,2.8c0,0.3-0.1,0.6-0.2,0.8c-0.1,0.3-0.1,0.5-0.1,0.7c-1.3,5.9-2.7,12.7-5,19.1
		l-0.1,0.2c-0.4,1-1.3,3-2.3,3.4c-0.3,0.1-0.6,0.1-0.8,0c-0.3-0.3-0.6-0.7-0.9-1.1c-0.7-1-1.5-2.1-2.4-2c-0.7,0-1.3,0.6-1.9,1.6
		c-2.5,4.2-5.7,7.4-9.2,9.3c-2.2,0.6-3.7,0.9-4.5,0.2c3.7-1.6,6.8-4.1,10.2-7c0.3-0.3,0.6-0.6,0.9-0.9c2.7-2.5,5.7-5.3,4.8-9.3
		l0-0.1l-0.1-0.1c-0.1-0.1-0.2-0.2-0.2-0.3c-0.2-0.3-0.4-0.6-0.9-0.7c-3-1.4-8.2,2.1-10.2,3.4c-4.8,3.7-7.5,7.7-8,12.5
		c0,0.5,0.1,0.8,0.1,1.2c-0.3,0.1-0.5,0.2-0.8,0.2c-0.2,0-0.4,0-0.6,0c-0.6,0.1-0.8,0.1-1.1-0.3c-1.5-1.5-1.6-3.9-1.8-6.2
		c-0.1-0.9-0.1-1.8-0.3-2.6c-0.1-1.5-0.2-3.1-0.2-4.6c-0.2-5.1-0.4-10.4-1.8-15.5l0-0.1c-0.1-0.2-0.2-0.5-0.3-0.7
		c-0.2-0.5-0.5-1.1-0.9-1.6c-0.8-0.8-1.6-1.1-2.5-1c-2.4,0.4-4.4,4.3-5.5,6.7c-0.2,0.4-0.4,0.8-0.5,1c-1,2-2,4-3,5.9
		c-2.1,4.3-4.3,8.8-7,12.8c-0.2,0.2-0.4,0.5-0.7,0.8c-0.4,0.5-0.7,0.9-1.2,1.1c-0.1,0-0.1,0-0.1,0c-0.3-0.2-0.9-1-1.4-5.1
		c0-0.2-0.1-0.4-0.1-0.5c-0.2-2.2-0.4-4.5-0.6-6.8c-0.3-4.5-0.7-9.1-1.5-13.5l0-0.1l-0.1-0.1c-0.1-0.1-0.3-0.3-0.4-0.5
		c-0.4-0.5-0.8-1-1.4-1.2c-1.4-0.5-2.7,1.4-3.2,2.2c-0.1,0.1-0.1,0.2-0.2,0.3c-1.5,2.3-2.8,4.8-4,7.2c-0.8,1.6-1.7,3.3-2.6,5
		c-5.2,9.7-10.2,18-15.2,25.6c-0.3,0.4-0.3,0.9-0.1,1.3c0.2,0.4,0.6,0.7,1.1,0.7c0,0,0,0,0,0c0.4,0,0.9-0.2,1.1-0.7
		c4.9-7.3,9.7-15.5,15.2-25.7c1.1-1.4,2-3.5,3-5.7c1.3-2.9,2.7-5.9,4.4-7.5c0,0.1,0,0.1,0,0.2c0.6,4,0.9,8,1.2,12
		c0.2,2.5,0.4,5,0.7,7.5l0,0.2c0.3,2.2,0.7,6.3,2.9,7.3c0.9,0.4,1.9,0.3,3-0.5c0.7-0.4,1.2-1,1.6-1.5l0.3-0.3
		c2.9-4.2,5.2-8.9,7.4-13.4c0.9-1.9,1.9-3.9,2.9-5.8c0.1-0.1,0.3-0.5,0.5-0.9c2.6-5,3.6-5.7,3.9-5.6c0.2,0.3,0.5,1.1,0.6,1.4
		c0.1,0.3,0.2,0.5,0.3,0.6c1.2,4.4,1.4,9.1,1.6,13.7c0.1,1.9,0.2,3.8,0.3,5.7c0.1,0.5,0.1,1.1,0.2,1.7c0.3,3.3,0.8,8.4,4.1,9.5
		c0.4,0.1,0.9,0.2,1.3,0.2c0.3,0,0.5,0,0.8,0.1l0.1,0l0.1,0c0.6-0.1,1.1-0.2,1.7-0.4l0,0c1.6,2.5,4.8,2.1,7.7,1.4l0.1,0
		c4.2-2,7.8-5.5,10.5-10c0.3,0.5,0.8,1,1.5,1.7l0.1,0.1c1,0.6,2,0.8,2.9,0.6c1.9-0.5,3.3-2.8,4.3-5c0.8-2.2,1.5-4.5,2.1-6.7
		c0,1.2,0,2.4,0,3.6l0,0.2c0.3,5.2,0.7,11.2,5,14.9l0.2,0.1c0.1,0,0.3,0.1,0.4,0.2c0.5,0.2,1,0.4,1.5,0.4c0,0,0,0,0,0
		c4.9,0.3,8.2-5.2,10-8.2c1.4-2.5,2.4-5.3,3.3-8.7c0.2,1,0.5,2.1,0.8,3.2c1.2,2.7,2.7,4.2,4.4,4.7c1.9,0.5,4.1-0.1,7.1-2.1
		c4-3.1,6.6-7.4,9.2-11.6c0.5-0.8,1.1-1.7,1.6-2.5c0.1-0.1,0.1-0.2,0.2-0.3c0,0,0,0,0,0c0.2,0.9,0.3,1.2,0.3,1.2l0,0c0,0,0,0,0,0
		l0,0l0.1,0.3c0.1,0.3,0.1,0.7,0.3,1.2c1,3.8,3,5.8,5.9,6.2c0.3,0,0.6-0.1,0.9-0.4c0.3-0.4,0.3-0.9,0.1-1.4
		C14.5,287.9,14.1,287.6,13.6,287.6z M-64.4,302.2c0.4-3.9,2.7-7.4,7-10.6l0.3-0.2c2.1-1.4,4.8-3.3,7.3-3.1c0.5,2.2-1.8,4.2-3.5,5.8
		c-0.6,0.5-1.1,1-1.5,1.4C-57.7,298.1-60.8,300.7-64.4,302.2C-64.4,302.2-64.4,302.2-64.4,302.2z"/>
	<circle cx="-211.1" cy="278" r="1.7"/>
	<circle cx="7.1" cy="273.5" r="1.7"/>
	<path d="M71.8,285.5L71.8,285.5c-3.6-1.3-6.4-2.6-8.8-4.1c-0.9-0.4-4.3-2.5-4.5-3.1c-0.1-0.8,1.9-1.5,3-1.9
		c0.5-0.2,0.8-0.3,1.1-0.4c1.1-0.6,3.7-2.7,3.8-4.7c0.1-0.8-0.2-1.4-0.9-1.9c-0.5-0.4-1.2-0.6-1.9-0.6c-3.3,0.3-7.7,5.7-7.9,5.9
		c-0.1,0.1-0.3,0.4-0.6,0.7c-3.5,4.3-5.8,6.4-7,6.2c-0.1,0-0.4-0.1-0.6-0.8c-0.3-0.9,0.3-2.7,0.6-3.9c0.1-0.4,0.2-0.8,0.3-1.1
		l0.9-5.1c0.1-0.5-0.1-1-0.6-1.2c-0.4-0.2-0.9-0.2-1.3,0c-1.4,0.7-3,2.7-4.2,4.1c-0.4,0.6-0.9,1.2-1.2,1.3
		c-4.7,4.9-9.9,10-16.4,12.9c-2.3,0.9-4.6,1.8-6,1c-0.8-0.5-1.3-1.4-1.6-2.9c0.2-5.4,2.4-10.4,7.3-16.1c0.4-0.4,0.5-0.8,0.4-1.3
		c-0.1-0.5-0.5-0.8-1-0.9c-0.4-0.1-0.9,0.1-1.2,0.4c-3.7,4.4-7.6,10-7.9,17.8c0.4,2.5,1.3,4.2,2.7,5c0.8,0.5,1.7,0.6,2.6,0.6
		c1.8,0,3.8-0.7,5.7-1.4c6.9-3.1,12.5-8.6,17.3-13.5l2-2.3c-0.4,1.9-0.8,3.9-0.9,5.9c-0.1,2,0.4,3.4,1.7,4.1
		c3.2,1.6,6.5-2.2,8.9-5.4c0.5,1.4,2.5,2.7,4,3.6c0.4,0.2,0.7,0.4,1,0.6c3.1,2,6.5,3.6,10,4.9c0.6,0.2,1.2-0.2,1.4-0.8
		C72.6,286.4,72.3,285.8,71.8,285.5z M62.4,271.7c0,0.2-0.1,0.3-0.1,0.5c-0.1,0.4-0.1,0.8-0.2,1.2c-0.6,0.3-1.2,0.7-1.9,1
		c-0.3,0.1-0.6,0.3-0.9,0.4c-0.3,0.1-0.7,0.3-0.9,0.4c0,0,0,0,0,0C59.4,274,61.5,272.1,62.4,271.7z"/>
</g>
<g>
	<path d="M-199.6,373.8h-8.1v-3h19.7v3h-8.1v20.8h-3.4L-199.6,373.8L-199.6,373.8z"/>
	<path d="M-185.3,372.5c-0.4-0.4-0.6-0.9-0.6-1.5s0.2-1.1,0.6-1.5c0.4-0.4,0.9-0.6,1.6-0.6c0.6,0,1.2,0.2,1.6,0.6
		c0.4,0.4,0.6,0.9,0.6,1.5s-0.2,1.1-0.6,1.5c-0.4,0.4-0.9,0.6-1.6,0.6C-184.3,373.2-184.9,372.9-185.3,372.5z M-185.3,376.6h3.3v18
		h-3.3V376.6z"/>
	<path d="M-165.7,393.6c-0.5,0.4-1.1,0.7-1.8,0.9c-0.7,0.2-1.4,0.3-2.2,0.3c-1.8,0-3.2-0.5-4.2-1.5s-1.5-2.4-1.5-4.2v-9.9h-3.1v-2.7
		h3.1v-3.9h3.3v3.9h5.2v2.7h-5.2v9.7c0,1,0.2,1.7,0.7,2.2s1.2,0.8,2.1,0.8c1,0,1.8-0.3,2.5-0.8L-165.7,393.6z"/>
	<path d="M-149.5,378.3c1.3,1.2,2,3,2,5.5v10.9h-3.1v-2.4c-0.5,0.8-1.3,1.5-2.3,1.9s-2.2,0.7-3.6,0.7c-2,0-3.6-0.5-4.8-1.5
		s-1.8-2.3-1.8-3.8c0-1.6,0.6-2.9,1.7-3.8c1.2-1,3-1.4,5.5-1.4h5.2v-0.6c0-1.4-0.4-2.5-1.2-3.2s-2-1.1-3.6-1.1
		c-1.1,0-2.1,0.2-3.1,0.5c-1,0.4-1.9,0.8-2.6,1.4l-1.4-2.4c0.9-0.7,2-1.3,3.3-1.7c1.3-0.4,2.7-0.6,4.1-0.6
		C-152.8,376.4-150.9,377.1-149.5,378.3z M-152.8,391.5c0.9-0.6,1.6-1.3,2-2.4v-2.5h-5c-2.8,0-4.1,0.9-4.1,2.8
		c0,0.9,0.4,1.6,1.1,2.1c0.7,0.5,1.7,0.8,2.9,0.8C-154.8,392.3-153.7,392-152.8,391.5z"/>
	<path d="M-140.6,394.2c-1.4-0.4-2.4-0.9-3.2-1.5l1.4-2.6c0.8,0.6,1.8,1,2.9,1.4c1.1,0.3,2.3,0.5,3.4,0.5c2.9,0,4.3-0.8,4.3-2.4
		c0-0.5-0.2-1-0.6-1.3c-0.4-0.3-0.9-0.5-1.4-0.7c-0.6-0.1-1.4-0.3-2.5-0.5c-1.4-0.2-2.6-0.5-3.5-0.8s-1.7-0.8-2.4-1.5s-1-1.7-1-3
		c0-1.6,0.7-2.9,2-3.9c1.4-1,3.2-1.5,5.5-1.5c1.2,0,2.4,0.1,3.6,0.4c1.2,0.3,2.2,0.7,3,1.2l-1.4,2.6c-1.5-1-3.2-1.4-5.2-1.4
		c-1.4,0-2.4,0.2-3.2,0.7c-0.7,0.5-1.1,1.1-1.1,1.8c0,0.6,0.2,1.1,0.6,1.4c0.4,0.3,0.9,0.6,1.5,0.7c0.6,0.2,1.4,0.3,2.5,0.5
		c1.4,0.2,2.6,0.5,3.5,0.8s1.7,0.8,2.3,1.4c0.6,0.7,1,1.6,1,2.9c0,1.6-0.7,2.9-2.1,3.9s-3.3,1.4-5.7,1.4
		C-137.8,394.8-139.2,394.6-140.6,394.2z"/>
	<path d="M-92.9,394.6v-17.3l-8.6,14.4h-1.6l-8.6-14.3v17.2h-3.3v-23.8h2.8l9.9,16.7l9.8-16.7h2.8v23.8L-92.9,394.6L-92.9,394.6z"/>
	<path d="M-70.7,378.3c1.3,1.2,2,3,2,5.5v10.9h-3.1v-2.4c-0.5,0.8-1.3,1.5-2.3,1.9s-2.2,0.7-3.6,0.7c-2,0-3.6-0.5-4.8-1.5
		c-1.2-1-1.8-2.3-1.8-3.8c0-1.6,0.6-2.9,1.7-3.8c1.2-1,3-1.4,5.5-1.4h5.2v-0.6c0-1.4-0.4-2.5-1.2-3.2c-0.8-0.7-2-1.1-3.6-1.1
		c-1.1,0-2.1,0.2-3.1,0.5c-1,0.4-1.9,0.8-2.6,1.4l-1.4-2.4c0.9-0.7,2-1.3,3.3-1.7c1.3-0.4,2.7-0.6,4.1-0.6
		C-73.9,376.4-72,377.1-70.7,378.3z M-73.9,391.5c0.9-0.6,1.6-1.3,2-2.4v-2.5h-5c-2.8,0-4.1,0.9-4.1,2.8c0,0.9,0.4,1.6,1.1,2.1
		s1.7,0.8,2.9,0.8S-74.8,392-73.9,391.5z"/>
	<path d="M-62.6,369.4h3.3v25.2h-3.3V369.4z"/>
	<path d="M-53.2,369.4h3.3v25.2h-3.3V369.4z"/>
	<path d="M-43.7,372.5c-0.4-0.4-0.6-0.9-0.6-1.5s0.2-1.1,0.6-1.5c0.4-0.4,0.9-0.6,1.6-0.6c0.6,0,1.2,0.2,1.6,0.6
		c0.4,0.4,0.6,0.9,0.6,1.5s-0.2,1.1-0.6,1.5c-0.4,0.4-0.9,0.6-1.6,0.6C-42.7,373.2-43.2,372.9-43.7,372.5z M-43.7,376.6h3.3v18h-3.3
		V376.6z"/>
	<path d="M-31.3,393.6c-1.4-0.8-2.6-1.9-3.4-3.3c-0.8-1.4-1.2-3-1.2-4.7s0.4-3.3,1.2-4.7c0.8-1.4,1.9-2.5,3.4-3.3
		c1.4-0.8,3.1-1.2,4.9-1.2c1.6,0,3.1,0.3,4.4,1s2.3,1.6,3,2.9l-2.5,1.6c-0.6-0.9-1.3-1.5-2.1-1.9c-0.8-0.4-1.8-0.6-2.8-0.6
		c-1.2,0-2.2,0.3-3.2,0.8c-0.9,0.5-1.7,1.3-2.2,2.2c-0.5,1-0.8,2.1-0.8,3.3c0,1.3,0.3,2.4,0.8,3.3c0.5,1,1.3,1.7,2.2,2.2
		c0.9,0.5,2,0.8,3.2,0.8c1,0,1.9-0.2,2.8-0.6c0.8-0.4,1.5-1.1,2.1-1.9l2.5,1.6c-0.7,1.2-1.7,2.2-3,2.9c-1.3,0.7-2.7,1-4.4,1
		C-28.2,394.8-29.9,394.4-31.3,393.6z"/>
	<path d="M-8.1,386.2l-3.7,3.5v4.9h-3.3v-25.2h3.3v16.2l9.8-9h3.9l-7.6,7.4l8.3,10.6h-4L-8.1,386.2z"/>
</g>
</svg>
